<svg xmlns="http://www.w3.org/2000/svg" viewBox="0 0 1441.14 894.32"><defs><style>.cls-1{fill:#eceae2;}.cls-2,.cls-5,.cls-6{fill:none;}.cls-3{fill:#fc0;}.cls-4{fill:#565656;}.cls-5{stroke:#000;}.cls-5,.cls-6{stroke-miterlimit:10;}.cls-6{stroke:#fc0;}</style></defs><g id="レイヤー_2" data-name="レイヤー 2"><g id="newDesign"><rect class="cls-1" width="1440" height="894.32"/><rect class="cls-1" width="1440" height="894.32"/><rect class="cls-1" x="292.84" y="-252.84" width="854.32" height="1400" transform="translate(1167.16 -272.84) rotate(90)"/><rect class="cls-2" y="0.81" width="1440" height="96"/><rect class="cls-3" x="134.49" y="39.84" width="31.32" height="160.38"/><rect class="cls-3" x="197.14" y="99.88" width="31.32" height="160.38"/><rect class="cls-3" x="993.12" y="429.7" width="45.91" height="235.06" transform="translate(1563.3 -468.85) rotate(90)"/><rect class="cls-3" x="1142.45" y="488.69" width="22.96" height="140.03" transform="translate(1712.63 -595.22) rotate(90)"/><rect class="cls-3" x="905.12" y="521.52" width="45.91" height="235.06" transform="translate(1567.12 -289.02) rotate(90)"/><polygon class="cls-3" points="1270.16 398.95 1249.18 398.95 1267.22 341.27 1249.18 283.58 1270.16 283.58 1288.21 341.27 1270.16 398.95"/><polygon class="cls-3" points="1361.4 437.16 1326.51 437.16 1356.51 341.27 1326.51 245.37 1361.4 245.37 1391.41 341.27 1361.4 437.16"/><path class="cls-4" d="M1149.79,806.33h-2.08v-1.24h5.66v1.24h-2.1v6.17h-1.48Z"/><path class="cls-4" d="M1154.45,804.52h1.47v2l-.07,1.05a2.55,2.55,0,0,1,1.76-.82c1.21,0,1.73.84,1.73,2.25v3.49h-1.47v-3.31c0-.87-.24-1.17-.79-1.17a1.57,1.57,0,0,0-1.16.63v3.85h-1.47Z"/><path class="cls-4" d="M1160.85,806.9h1.2l.11,1h0a1.94,1.94,0,0,1,1.59-1.13,1.58,1.58,0,0,1,.66.12l-.25,1.27a1.87,1.87,0,0,0-.59-.09c-.44,0-1,.29-1.28,1.1v3.34h-1.47Z"/><path class="cls-4" d="M1164.86,809.7a2.74,2.74,0,0,1,2.61-2.94c1.54,0,2.34,1.13,2.34,2.67a2.76,2.76,0,0,1-.07.68h-3.45a1.47,1.47,0,0,0,1.55,1.4,2.31,2.31,0,0,0,1.26-.39l.5.9a3.53,3.53,0,0,1-1.95.62A2.72,2.72,0,0,1,1164.86,809.7Zm3.69-.57c0-.75-.34-1.23-1.06-1.23a1.26,1.26,0,0,0-1.22,1.23Z"/><path class="cls-4" d="M1170.67,809.7a2.74,2.74,0,0,1,2.61-2.94c1.54,0,2.34,1.13,2.34,2.67a2.76,2.76,0,0,1-.07.68h-3.45a1.47,1.47,0,0,0,1.55,1.4,2.31,2.31,0,0,0,1.26-.39l.5.9a3.53,3.53,0,0,1-2,.62A2.72,2.72,0,0,1,1170.67,809.7Zm3.69-.57c0-.75-.34-1.23-1.06-1.23a1.26,1.26,0,0,0-1.22,1.23Z"/><path class="cls-4" d="M1176.75,811.68a.92.92,0,1,1,.91,1A.91.91,0,0,1,1176.75,811.68Z"/><path class="cls-4" d="M1178.75,814.64l.26-1.09a1.45,1.45,0,0,0,.47.08c.47,0,.61-.32.61-1V806.9h1.47v5.74c0,1.2-.46,2.15-1.87,2.15A2.65,2.65,0,0,1,1178.75,814.64Zm1.22-9.45a.86.86,0,1,1,.85.81A.79.79,0,0,1,1180,805.19Z"/><path class="cls-4" d="M1182.61,811.85l.67-.92a2.43,2.43,0,0,0,1.5.61c.56,0,.81-.24.81-.59s-.58-.61-1.17-.84-1.5-.7-1.5-1.64.81-1.71,2.09-1.71a3.1,3.1,0,0,1,1.9.69l-.66.89a2.08,2.08,0,0,0-1.2-.48c-.51,0-.75.22-.75.54s.52.56,1.11.78,1.56.65,1.56,1.69-.77,1.77-2.23,1.77A3.55,3.55,0,0,1,1182.61,811.85Z"/><path class="cls-4" d="M595.63,805.09h2.58c1.55,0,2.78.55,2.78,2.25a2.12,2.12,0,0,1-1.41,2.13l1.73,3h-1.65l-1.52-2.8h-1v2.8h-1.48Zm2.44,3.44c.95,0,1.48-.4,1.48-1.19s-.53-1.07-1.48-1.07h-1v2.26Z"/><path class="cls-4" d="M602,809.7a2.74,2.74,0,0,1,2.61-2.94c1.54,0,2.34,1.13,2.34,2.67a2.76,2.76,0,0,1-.07.68h-3.45a1.47,1.47,0,0,0,1.55,1.4,2.31,2.31,0,0,0,1.26-.39l.5.9a3.53,3.53,0,0,1-2,.62A2.72,2.72,0,0,1,602,809.7Zm3.69-.57c0-.75-.34-1.23-1.06-1.23a1.26,1.26,0,0,0-1.22,1.23Z"/><path class="cls-4" d="M607.86,811c0-1.2,1-1.83,3.23-2.07,0-.55-.27-1-1-1a3.16,3.16,0,0,0-1.54.53l-.53-1a4.47,4.47,0,0,1,2.34-.74c1.42,0,2.15.85,2.15,2.47v3.27h-1.2l-.1-.6h0a2.63,2.63,0,0,1-1.69.74A1.59,1.59,0,0,1,607.86,811Zm3.23,0v-1.13c-1.37.17-1.83.55-1.83,1.05s.31.63.74.63A1.52,1.52,0,0,0,611.09,810.94Z"/><path class="cls-4" d="M613.7,809.7a2.79,2.79,0,0,1,2.86-2.94,2.45,2.45,0,0,1,1.63.62l-.7,1a1.27,1.27,0,0,0-.85-.37c-.86,0-1.44.69-1.44,1.74s.59,1.74,1.39,1.74a1.74,1.74,0,0,0,1.09-.45l.59,1a2.82,2.82,0,0,1-1.84.68A2.68,2.68,0,0,1,613.7,809.7Z"/><path class="cls-4" d="M619.53,810.54v-2.48h-.79V807l.87-.07.17-1.51H621v1.51h1.38v1.16H621v2.48c0,.64.26.94.76.94a1.64,1.64,0,0,0,.55-.12l.24,1.07a3.62,3.62,0,0,1-1.18.21C620,812.64,619.53,811.79,619.53,810.54Z"/><path class="cls-4" d="M688.94,805.09h1.51L692.6,809l.74,1.6h0c-.07-.77-.19-1.75-.19-2.59v-3h1.4v7.41h-1.5l-2.14-4-.75-1.59h-.05c.07.8.18,1.73.18,2.58v3h-1.4Z"/><path class="cls-4" d="M696.43,805.09H701v1.24h-3.06V808h2.6v1.24h-2.6v2h3.17v1.24h-4.65Z"/><path class="cls-4" d="M703.89,808.68l-1.95-3.59h1.64l.74,1.53c.18.35.33.71.55,1.17h0c.18-.46.33-.82.49-1.17l.7-1.53h1.56l-1.95,3.66,2.08,3.75h-1.64l-.83-1.64c-.19-.38-.36-.77-.58-1.22h0c-.18.45-.36.84-.54,1.22l-.79,1.64h-1.57Z"/><path class="cls-4" d="M710.32,806.33h-2.08v-1.24h5.66v1.24h-2.1v6.17h-1.48Z"/><path class="cls-4" d="M714.9,811.68a.92.92,0,1,1,.91,1A.91.91,0,0,1,714.9,811.68Z"/><path class="cls-4" d="M716.9,814.64l.26-1.09a1.45,1.45,0,0,0,.47.08c.47,0,.61-.32.61-1V806.9h1.47v5.74c0,1.2-.46,2.15-1.87,2.15A2.65,2.65,0,0,1,716.9,814.64Zm1.22-9.45a.86.86,0,1,1,.85.81A.79.79,0,0,1,718.12,805.19Z"/><path class="cls-4" d="M720.76,811.85l.67-.92a2.43,2.43,0,0,0,1.5.61c.56,0,.81-.24.81-.59s-.58-.61-1.17-.84-1.5-.7-1.5-1.64.81-1.71,2.09-1.71a3.1,3.1,0,0,1,1.9.69l-.66.89a2.08,2.08,0,0,0-1.2-.48c-.51,0-.75.22-.75.54s.52.56,1.11.78c.74.28,1.56.65,1.56,1.69s-.77,1.77-2.23,1.77A3.55,3.55,0,0,1,720.76,811.85Z"/><path class="cls-4" d="M855.44,805.09h1.64l1.26,3.47c.16.46.3,1,.45,1.42h.05c.16-.47.29-1,.45-1.42l1.23-3.47h1.64v7.41h-1.35v-3.09c0-.7.11-1.73.19-2.43h0l-.6,1.74-1.14,3.11h-.85l-1.15-3.11-.59-1.74h0c.07.7.19,1.73.19,2.43v3.09h-1.33Z"/><path class="cls-4" d="M863.51,809.7a2.7,2.7,0,1,1,2.69,2.94A2.73,2.73,0,0,1,863.51,809.7Zm3.88,0c0-1.05-.43-1.74-1.19-1.74s-1.19.69-1.19,1.74.43,1.74,1.19,1.74S867.39,810.76,867.39,809.7Z"/><path class="cls-4" d="M869.8,809.7c0-1.82,1.14-2.94,2.35-2.94a1.93,1.93,0,0,1,1.42.61l-.05-.88v-2H875v8h-1.19l-.11-.58h0a2.32,2.32,0,0,1-1.55.72C870.7,812.64,869.8,811.54,869.8,809.7Zm3.72,1.15v-2.46a1.51,1.51,0,0,0-1-.42c-.63,0-1.16.6-1.16,1.72s.42,1.74,1.16,1.74A1.27,1.27,0,0,0,873.52,810.85Z"/><path class="cls-4" d="M876.5,810.4v-3.5H878v3.31c0,.86.24,1.17.78,1.17a1.35,1.35,0,0,0,1.14-.7V806.9h1.47v5.6h-1.2l-.11-.8h0a2.25,2.25,0,0,1-1.78.94C877,812.64,876.5,811.8,876.5,810.4Z"/><path class="cls-4" d="M882.93,810.93v-6.41h1.47V811c0,.34.15.45.29.45l.2,0,.18,1.09a2,2,0,0,1-.76.13C883.29,812.64,882.93,812,882.93,810.93Z"/><path class="cls-4" d="M885.73,809.7a2.74,2.74,0,0,1,2.61-2.94c1.54,0,2.34,1.13,2.34,2.67a2.76,2.76,0,0,1-.07.68h-3.45a1.47,1.47,0,0,0,1.55,1.4,2.31,2.31,0,0,0,1.26-.39l.5.9a3.53,3.53,0,0,1-2,.62A2.72,2.72,0,0,1,885.73,809.7Zm3.69-.57c0-.75-.34-1.23-1.06-1.23a1.26,1.26,0,0,0-1.22,1.23Z"/><path class="cls-4" d="M996.62,805.09h1.51l2.15,3.95.74,1.6h.05c-.07-.77-.19-1.75-.19-2.59v-3h1.4v7.41h-1.5l-2.14-4-.75-1.59h0c.07.8.18,1.73.18,2.58v3h-1.4Z"/><path class="cls-4" d="M1003.64,809.7a2.7,2.7,0,1,1,2.69,2.94A2.73,2.73,0,0,1,1003.64,809.7Zm3.88,0c0-1.05-.43-1.74-1.19-1.74s-1.19.69-1.19,1.74.43,1.74,1.19,1.74S1007.52,810.76,1007.52,809.7Z"/><path class="cls-4" d="M1009.93,809.7c0-1.82,1.14-2.94,2.35-2.94a1.93,1.93,0,0,1,1.42.61l-.05-.88v-2h1.46v8h-1.19l-.11-.58h0a2.32,2.32,0,0,1-1.55.72C1010.83,812.64,1009.93,811.54,1009.93,809.7Zm3.72,1.15v-2.46a1.51,1.51,0,0,0-1-.42c-.63,0-1.16.6-1.16,1.72s.42,1.74,1.16,1.74A1.27,1.27,0,0,0,1013.65,810.85Z"/><path class="cls-4" d="M1016.34,809.7a2.74,2.74,0,0,1,2.61-2.94c1.54,0,2.34,1.13,2.34,2.67a2.76,2.76,0,0,1-.07.68h-3.45a1.47,1.47,0,0,0,1.55,1.4,2.31,2.31,0,0,0,1.26-.39l.5.9a3.53,3.53,0,0,1-2,.62A2.72,2.72,0,0,1,1016.34,809.7Zm3.69-.57c0-.75-.34-1.23-1.06-1.23a1.26,1.26,0,0,0-1.22,1.23Z"/><rect class="cls-3" x="1048.93" y="589.48" width="22.96" height="122.08" transform="translate(1710.93 -409.88) rotate(90)"/><path class="cls-4" d="M1372.74,134l.75,1a1.25,1.25,0,0,0-.77,1.1c0,.65.35,1,1.37,1h4.9v1.48h-5a2.23,2.23,0,0,1-2.53-2.29A2.42,2.42,0,0,1,1372.74,134Z"/><path class="cls-4" d="M1372.52,139.88l1,.85a2.91,2.91,0,0,0-.82,1.88c0,.77.33,1.18.85,1.18s.72-.45,1-1.11l.42-1a2.14,2.14,0,0,1,2-1.5,2.31,2.31,0,0,1,2.14,2.56,3.28,3.28,0,0,1-.95,2.32l-.93-.75a2.36,2.36,0,0,0,.61-1.57c0-.65-.29-1.06-.78-1.06s-.72.52-1,1.15l-.41,1a2,2,0,0,1-2,1.49c-1.21,0-2.24-1-2.24-2.72A3.94,3.94,0,0,1,1372.52,139.88Z"/><path class="cls-4" d="M1375.4,147.92,1379,146v1.64l-1.53.74c-.35.18-.71.33-1.17.55v0c.46.18.82.33,1.17.49l1.53.7v1.56l-3.66-1.95-3.75,2.08v-1.64l1.64-.83,1.22-.58v0c-.45-.18-.84-.36-1.22-.54l-1.64-.79v-1.57Z"/><path class="cls-4" d="M1374.91,275.84H1379v1.47h-4.21c-1.54,0-2.06.54-2.06,1.4s.52,1.44,2.06,1.44H1379v1.42h-4.08c-2.46,0-3.47-1.05-3.47-2.86S1372.45,275.84,1374.91,275.84Z"/><path class="cls-4" d="M1379,283.36v1.47h-7.41v-1.47Z"/><path class="cls-4" d="M1379.64,288.37v1l-9.88-2.48v-1Z"/><path class="cls-4" d="M1374.91,290.49H1379V292h-4.21c-1.54,0-2.06.54-2.06,1.4s.52,1.44,2.06,1.44H1379v1.42h-4.08c-2.46,0-3.47-1.05-3.47-2.86S1372.45,290.49,1374.91,290.49Z"/><path class="cls-4" d="M1375.4,299.32l3.59-1.94V299l-1.53.74c-.35.18-.71.33-1.17.55v.05c.46.18.82.33,1.17.49l1.53.7v1.56l-3.66-2-3.75,2.08v-1.64l1.64-.83,1.22-.58v0c-.45-.18-.84-.36-1.22-.54l-1.64-.79v-1.56Z"/><path class="cls-4" d="M1379,420.94v2c0,2.26-1.18,3.66-3.68,3.66s-3.73-1.4-3.73-3.58v-2.11Zm-6.22,1.94c0,1.38.74,2.24,2.54,2.24s2.49-.86,2.49-2.24v-.46h-5Z"/><path class="cls-4" d="M1377.18,428v1.47h-5.6V428Zm1.71-.12a.86.86,0,1,1-.81.86A.79.79,0,0,1,1378.89,427.84Z"/><path class="cls-4" d="M1373.1,430.72c1.2,0,1.83,1,2.07,3.23.55,0,1-.27,1-1a3.16,3.16,0,0,0-.53-1.54l1-.53a4.47,4.47,0,0,1,.74,2.34c0,1.42-.85,2.15-2.47,2.15h-3.27v-1.2l.6-.1v0a2.63,2.63,0,0,1-.74-1.69A1.59,1.59,0,0,1,1373.1,430.72Zm0,3.23h1.13c-.17-1.37-.55-1.83-1-1.83s-.63.31-.63.74A1.52,1.52,0,0,0,1373.14,434Z"/><path class="cls-4" d="M1373.15,436.91h6.41v1.47h-6.47c-.34,0-.45.15-.45.29a.83.83,0,0,0,0,.2l-1.09.18a2,2,0,0,1-.13-.76C1371.44,437.27,1372.11,436.91,1373.15,436.91Z"/><path class="cls-4" d="M1374.38,439.71a2.7,2.7,0,1,1-2.94,2.69A2.73,2.73,0,0,1,1374.38,439.71Zm0,3.88c1,0,1.74-.43,1.74-1.19s-.69-1.19-1.74-1.19-1.74.43-1.74,1.19S1373.32,443.59,1374.38,443.59Z"/><path class="cls-4" d="M1370.59,446a1.36,1.36,0,0,1,1.16.8h0a1.06,1.06,0,0,1,.94-.51,1.37,1.37,0,0,1,1,.63h0a1.83,1.83,0,0,1,1.47-.75,2.06,2.06,0,0,1,2,2.26,2.63,2.63,0,0,1-.14.84v2h-1.08v-.95a1.48,1.48,0,0,1-.85.25,1.91,1.91,0,0,1-1.9-2.16,2.38,2.38,0,0,1,.13-.72.57.57,0,0,0-.48-.24c-.3,0-.46.22-.46.88v.95c0,1.35-.42,2.09-1.4,2.09-1.13,0-2-1.18-2-3C1369.15,447,1369.6,446,1370.59,446Zm.3,4c.4,0,.5-.33.5-.93v-.68a3.16,3.16,0,0,1,.08-.78.83.83,0,0,0-.65-.36c-.47,0-.74.52-.74,1.33S1370.45,449.93,1370.89,449.93Zm4.41-.67a.89.89,0,1,0,0-1.76c-.67,0-1,.39-1,.88S1374.63,449.26,1375.3,449.26Z"/><path class="cls-4" d="M1373.15,456h6.41v1.46h-6.47c-.34,0-.45.16-.45.29a.79.79,0,0,0,0,.2l-1.09.18a1.87,1.87,0,0,1-.13-.75C1371.44,456.36,1372.11,456,1373.15,456Zm2.87-3.47v-.75h1.09l.06.75h.46a1.82,1.82,0,0,1,2.07,1.95,3.19,3.19,0,0,1-.19,1.06l-1.09-.27a1.59,1.59,0,0,0,.12-.59c0-.44-.26-.68-.88-.68h-.48v1.05H1376V454h-4.44v-1.47Z"/><path class="cls-4" d="M1374.38,458.81a2.7,2.7,0,1,1-2.94,2.69A2.73,2.73,0,0,1,1374.38,458.81Zm0,3.88c1,0,1.74-.43,1.74-1.19s-.69-1.19-1.74-1.19-1.74.43-1.74,1.19S1373.32,462.69,1374.38,462.69Z"/><path class="cls-4" d="M1377.18,464.9v1.47l-2.76.61c-.55.11-1.08.18-1.64.28v0c.56.11,1.1.21,1.64.35l2.76.68v1.3l-2.76.7c-.55.13-1.08.23-1.64.35v.05l1.64.28,2.76.61V473l-5.6-1.38v-1.73l2.44-.59c.53-.12,1-.21,1.63-.32v0c-.59-.11-1.11-.19-1.63-.31l-2.44-.57v-1.68Z"/><path d="M1366.74,566.84l1.84,1.53a5.28,5.28,0,0,0-1.48,3.39c0,1.39.6,2.12,1.53,2.12s1.3-.81,1.81-2l.75-1.79a3.86,3.86,0,0,1,3.58-2.7c2.18,0,3.86,1.91,3.86,4.61a5.91,5.91,0,0,1-1.71,4.18l-1.68-1.35a4.23,4.23,0,0,0,1.1-2.83c0-1.17-.52-1.91-1.4-1.91s-1.3.94-1.75,2.07l-.74,1.75a3.67,3.67,0,0,1-3.62,2.68c-2.18,0-4-1.82-4-4.89A7.12,7.12,0,0,1,1366.74,566.84Z"/><path d="M1371.66,578.29c4.39,0,7,2.83,7,6.2a5.42,5.42,0,0,1-1.71,3.9l-1.7-1.38a3.52,3.52,0,0,0,1.12-2.47c0-2-1.73-3.53-4.59-3.53s-4.65,1.37-4.65,3.48a3.65,3.65,0,0,0,1.32,2.75l-1.66,1.41a5.4,5.4,0,0,1-2-4.25C1364.8,581,1367.21,578.29,1371.66,578.29Z"/><path d="M1378.39,590.78v4.65c0,2.79-1,5-4.05,5a3.8,3.8,0,0,1-3.83-2.54l-5.46,3.11v-3l5-2.74v-1.85h-5v-2.67Zm-6.19,4.4c0,1.71.72,2.66,2.14,2.66s1.93-1,1.93-2.66v-1.73h-4.07Z"/><path d="M1371.77,602.39c4.34,0,6.86,2.43,6.86,6s-2.54,6-6.86,6-7-2.43-7-6S1367.45,602.39,1371.77,602.39Zm0,9.2c2.86,0,4.57-1.26,4.57-3.24s-1.71-3.24-4.57-3.24-4.67,1.26-4.67,3.24S1368.92,611.59,1371.77,611.59Z"/><path d="M1378.39,616.92v2.67h-11.11V625h-2.23v-8.08Z"/><path d="M1378.39,627.32V630h-11.11v5.42h-2.23v-8.09Z"/><path d="M1378.39,650v3.65c0,4.07-2.12,6.59-6.62,6.59s-6.72-2.52-6.72-6.45V650Zm-11.2,3.49c0,2.48,1.34,4,4.58,4s4.48-1.55,4.48-4v-.83h-9.06Z"/><path d="M1371.77,662.17c4.34,0,6.86,2.43,6.86,6s-2.54,6-6.86,6-7-2.43-7-6S1367.45,662.17,1371.77,662.17Zm0,9.2c2.86,0,4.57-1.26,4.57-3.24s-1.71-3.24-4.57-3.24-4.67,1.26-4.67,3.24S1368.92,671.37,1371.77,671.37Z"/><path d="M1378.39,675.4v2.7l-6.51,1.06c-1.41.2-2.81.42-4.25.62v.07c1.44.27,2.86.56,4.25.84l6.51,1.55v2.29l-6.51,1.53c-1.37.29-2.81.56-4.25.85V687l4.25.59,6.51,1.06v2.52l-13.34-2.46v-3.32l6.59-1.49c1-.22,2.07-.42,3.1-.58v-.07c-1-.18-2-.36-3.1-.58l-6.59-1.45V678Z"/><path d="M1378.39,693.17v2.72l-7.11,3.87-2.88,1.33v.09c1.39-.13,3.15-.34,4.66-.34h5.33v2.52h-13.34v-2.7l7.13-3.86,2.86-1.35v-.09c-1.44.13-3.11.33-4.64.33h-5.35v-2.52Z"/><rect class="cls-3" x="889.47" y="371.58" width="8.24" height="8.24"/><rect class="cls-3" x="910.03" y="371.58" width="8.24" height="8.24"/><rect class="cls-3" x="930.6" y="371.58" width="8.24" height="8.24"/><rect class="cls-3" x="530.03" y="373" width="5.4" height="5.4"/><rect class="cls-3" x="543.49" y="373" width="5.4" height="5.4"/><rect class="cls-3" x="556.95" y="373" width="5.4" height="5.4"/><rect class="cls-3" x="287.23" y="751.76" width="10.7" height="10.7"/><rect class="cls-3" x="313.93" y="751.76" width="10.7" height="10.7"/><rect class="cls-3" x="340.64" y="751.76" width="10.7" height="10.7"/><polyline class="cls-5" points="1379.99 752.12 1371.58 760.27 1363.17 752.12"/><rect class="cls-3" x="180.44" y="806.74" width="307.6" height="5.76"/><rect class="cls-3" x="74.81" y="536.11" width="268.17" height="5.76" transform="translate(-330.09 747.89) rotate(-90)"/><rect class="cls-3" x="1096.25" y="105" width="344.89" height="5.76"/><rect class="cls-3" x="20" y="243.53" width="232.15" height="3.93"/><rect class="cls-3" x="254.74" y="482.57" width="26" height="26"/><rect class="cls-3" x="397.87" y="412.71" width="14.64" height="14.64"/><rect class="cls-3" x="372.59" y="607.87" width="16.44" height="16.44"/><path d="M198.7,505.55q0,5.32-2.75,8.05c-1.82,1.82-4.46,2.73-7.89,2.73a31.62,31.62,0,0,1-5.32-.42V495.75a32,32,0,0,1,5.32-.42q5.12,0,7.88,2.64C197.78,499.74,198.7,502.26,198.7,505.55Zm-2.94,0a6.86,6.86,0,0,0-7.7-7.7,11.56,11.56,0,0,0-2.24.19v15.57a11.5,11.5,0,0,0,2.24.2q3.91,0,5.81-2T195.76,505.55Z"/><path d="M207.35,498.13V504H216v2.41h-8.68v7.17h9.24v2.52H204.27V495.61h12.32v2.52Z"/><path d="M229,497.79a4,4,0,0,0-2.63.77,2.57,2.57,0,0,0-.92,2.09c0,1.55,1.13,2.67,3.41,3.36a12,12,0,0,1,5.2,2.57,5.49,5.49,0,0,1,1.52,4,5.19,5.19,0,0,1-1.78,4.25,7.71,7.71,0,0,1-5.08,1.49,12.13,12.13,0,0,1-6.3-1.68l.84-2.52a9.65,9.65,0,0,0,5.46,1.68,4.16,4.16,0,0,0,2.8-.84,2.94,2.94,0,0,0,1-2.38,3.25,3.25,0,0,0-.78-2.3,6.69,6.69,0,0,0-2.86-1.48,11.72,11.72,0,0,1-4.88-2.49,4.92,4.92,0,0,1-1.56-3.67,4.81,4.81,0,0,1,1.75-3.87,7.35,7.35,0,0,1,4.83-1.45,14.47,14.47,0,0,1,6,1.26l-.7,2.38A12,12,0,0,0,229,497.79Z"/><path d="M242.43,516.05V495.61h3.36v20.44Z"/><path d="M267.05,506.36h-6.44V504H270v10.84a15.22,15.22,0,0,1-6.86,1.54,11.25,11.25,0,0,1-8-2.84,10,10,0,0,1-3-7.66,10.25,10.25,0,0,1,2.89-7.66,10.81,10.81,0,0,1,7.89-2.84A11.84,11.84,0,0,1,269.2,497l-1,2.24a9.74,9.74,0,0,0-5.09-1.49A7.69,7.69,0,0,0,257.3,500a8.07,8.07,0,0,0-2.1,5.85,7.84,7.84,0,0,0,2.21,5.86,8.2,8.2,0,0,0,6,2.17,9.09,9.09,0,0,0,3.64-.7Z"/><path d="M276.54,516.05V495.61h3l9.58,15.26h.05V495.61h3v20.44h-3l-9.57-15.26h-.06v15.26Z"/><path d="M323.33,510.17q0,6.16-8.12,6.16a35.13,35.13,0,0,1-5.6-.42V495.75a32,32,0,0,1,5.32-.42q7.56,0,7.56,5a4.3,4.3,0,0,1-1.15,2.95,5.3,5.3,0,0,1-3,1.64V505a6.36,6.36,0,0,1,3.69,1.73A4.7,4.7,0,0,1,323.33,510.17ZM312.69,504h1.12a9.33,9.33,0,0,0,4.43-.78,2.57,2.57,0,0,0,1.36-2.38,2.53,2.53,0,0,0-1.09-2.27,6.72,6.72,0,0,0-3.58-.73,11.5,11.5,0,0,0-2.24.2Zm0,2.41v7.31a14.38,14.38,0,0,0,2.52.19,6.14,6.14,0,0,0,3.86-1,3.59,3.59,0,0,0,1.23-3,2.88,2.88,0,0,0-1.48-2.68,10.82,10.82,0,0,0-5-.85Z"/><path d="M332,498.13V504h8.68v2.41H332v7.17h9.24v2.52H328.9V495.61h12.32v2.52Z"/><path d="M349.84,495.61l5.24,9.52h.05l5.24-9.52h3.5l-7.2,12v8.4h-3.24v-8.4l-7.2-12Z"/><path d="M370.65,498.18a10.86,10.86,0,0,1,14.67,0,12,12,0,0,1,0,15.29,10.84,10.84,0,0,1-14.67,0,12,12,0,0,1,0-15.29Zm2.29,13.49a7,7,0,0,0,10.08,0A9.88,9.88,0,0,0,383,500a7,7,0,0,0-10.08,0,9.93,9.93,0,0,0,0,11.68Z"/><path d="M393.63,516.05V495.61h3l9.57,15.26h.06V495.61h3v20.44h-3l-9.58-15.26h0v15.26Z"/><path d="M432.11,505.55q0,5.32-2.75,8.05t-7.89,2.73a31.62,31.62,0,0,1-5.32-.42V495.75a32,32,0,0,1,5.32-.42q5.11,0,7.88,2.64C431.19,499.74,432.11,502.26,432.11,505.55Zm-2.94,0a6.86,6.86,0,0,0-7.7-7.7,11.56,11.56,0,0,0-2.24.19v15.57a11.5,11.5,0,0,0,2.24.2q3.91,0,5.81-2T429.17,505.55Z"/><path d="M462,510.17q0,6.16-8.12,6.16a35.31,35.31,0,0,1-5.6-.42V495.75a32.05,32.05,0,0,1,5.32-.42q7.56,0,7.56,5a4.29,4.29,0,0,1-1.14,2.95,5.33,5.33,0,0,1-3.06,1.64V505a6.39,6.39,0,0,1,3.7,1.73A4.69,4.69,0,0,1,462,510.17ZM451.31,504h1.12a9.35,9.35,0,0,0,4.44-.78,2.57,2.57,0,0,0,1.36-2.38,2.53,2.53,0,0,0-1.09-2.27,6.76,6.76,0,0,0-3.59-.73,11.58,11.58,0,0,0-2.24.2Zm0,2.41v7.31a14.54,14.54,0,0,0,2.52.19,6.15,6.15,0,0,0,3.87-1,3.59,3.59,0,0,0,1.23-3,2.89,2.89,0,0,0-1.48-2.68,10.84,10.84,0,0,0-5-.85Z"/><path d="M469,498.18a10.86,10.86,0,0,1,14.67,0,12,12,0,0,1,0,15.29,10.84,10.84,0,0,1-14.67,0,12,12,0,0,1,0-15.29Zm2.3,13.49a7,7,0,0,0,10.08,0,9.93,9.93,0,0,0,0-11.68,7,7,0,0,0-10.08,0,9.88,9.88,0,0,0,0,11.68Z"/><path d="M494.85,495.61v12.32q0,5.82,4.62,5.82t4.62-5.82V495.61h3v12.18c0,2.82-.67,4.95-2,6.38a8.64,8.64,0,0,1-11.43,0q-2-2.14-2-6.38V495.61Z"/><path d="M513.67,516.05V495.61h3l9.58,15.26h.06V495.61h3v20.44h-3l-9.58-15.26h-.06v15.26Z"/><path d="M552.14,505.55q0,5.32-2.74,8.05c-1.83,1.82-4.47,2.73-7.9,2.73a31.71,31.71,0,0,1-5.32-.42V495.75a32.05,32.05,0,0,1,5.32-.42c3.42,0,6,.88,7.88,2.64S552.14,502.26,552.14,505.55Zm-2.94,0a6.86,6.86,0,0,0-7.7-7.7,11.56,11.56,0,0,0-2.24.19v15.57a11.5,11.5,0,0,0,2.24.2q3.91,0,5.81-2T549.2,505.55Z"/><path d="M556.31,516.05l7.28-20.44H567l7.28,20.44h-3.3l-1.77-5.43h-7.89l-1.77,5.43Zm5.71-7.84h6.39l-3.17-9.8h0Z"/><path d="M582.74,507.65v8.4h-3.08v-20.3a35.68,35.68,0,0,1,5.6-.42q4,0,6.08,1.48a4.81,4.81,0,0,1,2,4.12,6,6,0,0,1-1.09,3.64,5.43,5.43,0,0,1-3,2.07v.06a6.62,6.62,0,0,1,2.24,3.33l2.38,6h-3.19l-2.32-6a3.9,3.9,0,0,0-1.3-1.95,5.79,5.79,0,0,0-2.71-.43Zm0-2.41h1.68q5.94,0,5.94-4a2.87,2.87,0,0,0-1.27-2.56,7.58,7.58,0,0,0-4.11-.86,11.58,11.58,0,0,0-2.24.2Z"/><path d="M600.36,516.05V495.61h3.36v20.44Z"/><path d="M614.33,498.13V504H623v2.41h-8.68v7.17h9.24v2.52H611.25V495.61h12.32v2.52Z"/><path d="M636,497.79a4,4,0,0,0-2.63.77,2.58,2.58,0,0,0-.93,2.09q0,2.33,3.42,3.36a11.88,11.88,0,0,1,5.19,2.57,5.46,5.46,0,0,1,1.53,4,5.19,5.19,0,0,1-1.78,4.25,7.71,7.71,0,0,1-5.08,1.49,12.13,12.13,0,0,1-6.3-1.68l.84-2.52a9.65,9.65,0,0,0,5.46,1.68,4.18,4.18,0,0,0,2.8-.84,3,3,0,0,0,1-2.38,3.25,3.25,0,0,0-.78-2.3,6.75,6.75,0,0,0-2.86-1.48,11.83,11.83,0,0,1-4.89-2.49,5,5,0,0,1-1.55-3.67,4.78,4.78,0,0,1,1.75-3.87,7.35,7.35,0,0,1,4.83-1.45,14.5,14.5,0,0,1,6,1.26l-.7,2.38A12,12,0,0,0,636,497.79Z"/><path d="M195.19,546.85h-9.88v7.84h9.32v1.18h-9.32v10.22h-1.4V545.65h11.28Z"/><path d="M209.64,565.14q5.82,0,5.82-6.81V545.65h1.4V558.3a8.66,8.66,0,0,1-1.87,6,8,8,0,0,1-10.74,0q-1.86-2.05-1.86-6V545.65h1.42v12.68Q203.81,565.14,209.64,565.14Z"/><path d="M225.91,545.65v19.21h10.58v1.23h-12V545.65Z"/><path d="M245.14,545.65v19.21h10.59v1.23h-12V545.65Z"/><path d="M268.33,546.57a5.26,5.26,0,0,0-3.35.94,3.16,3.16,0,0,0-1.19,2.62q0,3.07,4.56,4.48a10.71,10.71,0,0,1,4.68,2.46,5.32,5.32,0,0,1,1.43,3.84,5.1,5.1,0,0,1-1.61,4,6.75,6.75,0,0,1-4.61,1.42,10,10,0,0,1-6-1.88l.51-1.12a8.94,8.94,0,0,0,5.51,1.79,5.26,5.26,0,0,0,3.59-1.09,4,4,0,0,0,1.23-3.16,4.21,4.21,0,0,0-1.11-3,8.71,8.71,0,0,0-3.71-2q-5.82-1.74-5.82-5.77a4.3,4.3,0,0,1,1.55-3.46,6.59,6.59,0,0,1,4.36-1.3,12.41,12.41,0,0,1,5.74,1.34l-.4,1.12A11.11,11.11,0,0,0,268.33,546.57Z"/><path d="M280.93,545.65h14.75v1.23H289v19.21h-1.4V546.88h-6.66Z"/><path d="M301.45,566.09l7.64-20.44h1.68l7.68,20.44h-1.52l-2.35-6.47h-9.32l-2.35,6.47Zm4.26-7.65h8.45L310,546.88h0Z"/><path d="M333.73,546.57a8.19,8.19,0,0,0-6.31,2.52,9.57,9.57,0,0,0-2.34,6.78,9.46,9.46,0,0,0,2.38,6.76,8.21,8.21,0,0,0,6.27,2.53,10.1,10.1,0,0,0,5.63-1.68l.53,1.1a10.92,10.92,0,0,1-6.24,1.79,9.56,9.56,0,0,1-7.27-2.86,12.15,12.15,0,0,1,0-15.31,9.63,9.63,0,0,1,7.3-2.83,10.92,10.92,0,0,1,6.24,1.79l-.53,1.09A9.91,9.91,0,0,0,333.73,546.57Z"/><path d="M348.63,545.65v9.27h.05l10.11-9.27h1.79l-10.75,9.8,11,10.64h-1.8L348.68,556h-.05v10.11h-1.4V545.65Z"/><path d="M393.43,555.59q0,5.26-2.75,8c-1.82,1.84-4.46,2.76-7.89,2.76a21.66,21.66,0,0,1-4.57-.45v-20.1a22.07,22.07,0,0,1,4.57-.45c3.43,0,6.07.88,7.89,2.64S393.43,552.3,393.43,555.59Zm-10.64-9a15.79,15.79,0,0,0-3.17.34v17.92a16.51,16.51,0,0,0,3.17.33q4.56,0,6.93-2.43t2.37-7.14q0-4.43-2.37-6.72T382.79,546.57Z"/><path d="M401.46,546.85v7.56h9.61v1.18h-9.61v9.29h10.17v1.21H400.06V545.65h11.57v1.2Z"/><path d="M424.65,546.57a5.28,5.28,0,0,0-3.35.94,3.16,3.16,0,0,0-1.19,2.62q0,3.07,4.57,4.48a10.73,10.73,0,0,1,4.67,2.46,5.28,5.28,0,0,1,1.43,3.84,5.1,5.1,0,0,1-1.61,4,6.72,6.72,0,0,1-4.6,1.42,10,10,0,0,1-6-1.88l.5-1.12a9,9,0,0,0,5.52,1.79,5.23,5.23,0,0,0,3.58-1.09,4,4,0,0,0,1.23-3.16,4.25,4.25,0,0,0-1.1-3,8.78,8.78,0,0,0-3.71-2q-5.83-1.74-5.83-5.77a4.28,4.28,0,0,1,1.56-3.46,6.55,6.55,0,0,1,4.35-1.3,12.41,12.41,0,0,1,5.74,1.34l-.39,1.12A11.15,11.15,0,0,0,424.65,546.57Z"/><path d="M438.93,566.09V545.65h1.48v20.44Z"/><path d="M458.45,546.57a8.72,8.72,0,0,0-6.6,2.49,9.46,9.46,0,0,0-2.39,6.81,9.35,9.35,0,0,0,2.43,6.79,8.84,8.84,0,0,0,6.64,2.5,13.23,13.23,0,0,0,5.52-1.09v-8.48h-7.76v-1.18h9.1v10.45a15.56,15.56,0,0,1-6.94,1.51,10.2,10.2,0,0,1-7.58-2.86,10.36,10.36,0,0,1-2.84-7.64,10.5,10.5,0,0,1,2.79-7.65,10,10,0,0,1,7.51-2.85,11.78,11.78,0,0,1,6.33,1.68l-.53,1.06A10.83,10.83,0,0,0,458.45,546.57Z"/><path d="M473,566.09V545.65h1.6L486.31,564h.05V545.65h1.4v20.44h-1.62l-11.71-18.31h-.05v18.31Z"/><path d="M515.34,546.57a8.17,8.17,0,0,0-6.31,2.52,9.57,9.57,0,0,0-2.34,6.78,9.46,9.46,0,0,0,2.38,6.76,8.19,8.19,0,0,0,6.27,2.53,10.12,10.12,0,0,0,5.63-1.68l.53,1.1a10.92,10.92,0,0,1-6.24,1.79,9.56,9.56,0,0,1-7.27-2.86,12.15,12.15,0,0,1,0-15.31,9.6,9.6,0,0,1,7.3-2.83,10.92,10.92,0,0,1,6.24,1.79l-.53,1.09A9.93,9.93,0,0,0,515.34,546.57Z"/><path d="M544.64,563.48a10.35,10.35,0,0,1-14.35,0,12.05,12.05,0,0,1,0-15.23,10.38,10.38,0,0,1,14.35,0,12,12,0,0,1,0,15.23Zm-13.31-.86a8.69,8.69,0,0,0,12.28,0,10.94,10.94,0,0,0,0-13.5,8.67,8.67,0,0,0-12.28,0,10.94,10.94,0,0,0,0,13.5Z"/><path d="M569.18,555.59q0,5.26-2.74,8t-7.9,2.76a21.49,21.49,0,0,1-4.56-.45v-20.1a22,22,0,0,1,4.56-.45q5.16,0,7.9,2.64C568.27,549.78,569.18,552.3,569.18,555.59Zm-10.64-9a15.7,15.7,0,0,0-3.16.34v17.92a16.41,16.41,0,0,0,3.16.33q4.58,0,6.93-2.43t2.37-7.14q0-4.43-2.37-6.72T558.54,546.57Z"/><path d="M576.8,566.09V545.65h1.48v20.44Z"/><path d="M587.16,566.09V545.65h1.6L600.46,564h.06V545.65h1.4v20.44h-1.63l-11.7-18.31h-.06v18.31Z"/><path d="M618.94,546.57a8.7,8.7,0,0,0-6.59,2.49,9.42,9.42,0,0,0-2.4,6.81,9.31,9.31,0,0,0,2.44,6.79,8.8,8.8,0,0,0,6.63,2.5,13.2,13.2,0,0,0,5.52-1.09v-8.48h-7.76v-1.18h9.1v10.45a15.53,15.53,0,0,1-6.94,1.51,10.18,10.18,0,0,1-7.57-2.86,10.33,10.33,0,0,1-2.85-7.64,10.5,10.5,0,0,1,2.79-7.65,10,10,0,0,1,7.52-2.85,11.78,11.78,0,0,1,6.33,1.68l-.54,1.06A10.83,10.83,0,0,0,618.94,546.57Z"/><line class="cls-6" x1="1.01" y1="505.64" x2="157.58" y2="505.64"/><line class="cls-6" x1="157.58" y1="518.23" x2="157.58" y2="674.8"/><rect class="cls-3" x="-13.57" y="609.01" width="125.44" height="5.13" transform="translate(-418.05 213.89) rotate(-45)"/><rect class="cls-3" x="1245.5" y="188.47" width="58.73" height="2.4" transform="translate(239.28 957.01) rotate(-45)"/><rect class="cls-3" x="52.22" y="809.62" width="307.6" height="2.88"/></g></g></svg>