<svg xmlns="http://www.w3.org/2000/svg" viewBox="0 0 1441.14 894.32"><defs><style>.cls-1{fill:#eceae2;}.cls-2{fill:#fc0;}.cls-3{fill:#565656;}.cls-4{fill:#161616;}.cls-5{fill:none;stroke:#fc0;stroke-miterlimit:10;}</style></defs><g id="レイヤー_2" data-name="レイヤー 2"><g id="newDesign"><rect class="cls-1" width="1440" height="894.32"/><rect class="cls-1" width="1440" height="894.32"/><rect class="cls-1" x="292.84" y="-252.84" width="854.32" height="1400" transform="translate(1167.16 -272.84) rotate(90)"/><rect class="cls-2" x="60.72" y="39.54" width="28.2" height="149.65" transform="translate(189.19 39.54) rotate(90)"/><rect class="cls-2" x="155.08" y="78.41" width="14.1" height="86.01" transform="translate(283.55 -40.71) rotate(90)"/><rect class="cls-2" x="133.83" y="81.7" width="19.34" height="144.39" transform="translate(287.01 307.79) rotate(180)"/><rect class="cls-2" x="70.2" y="132.02" width="3.66" height="167.37" transform="translate(173.62 12.25) rotate(45)"/><polygon class="cls-2" points="0 271.44 0 262.24 106.08 156.17 110.67 160.76 0 271.44"/><rect class="cls-2" x="223.72" y="145.55" width="3.66" height="74.99" transform="translate(-63.37 213.1) rotate(-45)"/><rect class="cls-2" x="153.17" y="128.47" width="20.24" height="20.24"/><rect class="cls-2" x="210.19" y="71.58" width="46.71" height="37.55"/><path class="cls-3" d="M1149.79,806.33h-2.08v-1.24h5.66v1.24h-2.1v6.17h-1.48Z"/><path class="cls-3" d="M1154.45,804.52h1.47v2l-.07,1.05a2.55,2.55,0,0,1,1.76-.82c1.21,0,1.73.84,1.73,2.25v3.49h-1.47v-3.31c0-.87-.24-1.17-.79-1.17a1.57,1.57,0,0,0-1.16.63v3.85h-1.47Z"/><path class="cls-3" d="M1160.85,806.9h1.2l.11,1h0a1.94,1.94,0,0,1,1.59-1.13,1.58,1.58,0,0,1,.66.12l-.25,1.27a1.87,1.87,0,0,0-.59-.09c-.44,0-1,.29-1.28,1.1v3.34h-1.47Z"/><path class="cls-3" d="M1164.86,809.7a2.74,2.74,0,0,1,2.61-2.94c1.54,0,2.34,1.13,2.34,2.67a2.76,2.76,0,0,1-.07.68h-3.45a1.47,1.47,0,0,0,1.55,1.4,2.31,2.31,0,0,0,1.26-.39l.5.9a3.53,3.53,0,0,1-1.95.62A2.72,2.72,0,0,1,1164.86,809.7Zm3.69-.57c0-.75-.34-1.23-1.06-1.23a1.26,1.26,0,0,0-1.22,1.23Z"/><path class="cls-3" d="M1170.67,809.7a2.74,2.74,0,0,1,2.61-2.94c1.54,0,2.34,1.13,2.34,2.67a2.76,2.76,0,0,1-.07.68h-3.45a1.47,1.47,0,0,0,1.55,1.4,2.31,2.31,0,0,0,1.26-.39l.5.9a3.53,3.53,0,0,1-2,.62A2.72,2.72,0,0,1,1170.67,809.7Zm3.69-.57c0-.75-.34-1.23-1.06-1.23a1.26,1.26,0,0,0-1.22,1.23Z"/><path class="cls-3" d="M1176.75,811.68a.92.92,0,1,1,.91,1A.91.91,0,0,1,1176.75,811.68Z"/><path class="cls-3" d="M1178.75,814.64l.26-1.09a1.45,1.45,0,0,0,.47.08c.47,0,.61-.32.61-1V806.9h1.47v5.74c0,1.2-.46,2.15-1.87,2.15A2.65,2.65,0,0,1,1178.75,814.64Zm1.22-9.45a.86.86,0,1,1,.85.81A.79.79,0,0,1,1180,805.19Z"/><path class="cls-3" d="M1182.61,811.85l.67-.92a2.43,2.43,0,0,0,1.5.61c.56,0,.81-.24.81-.59s-.58-.61-1.17-.84-1.5-.7-1.5-1.64.81-1.71,2.09-1.71a3.1,3.1,0,0,1,1.9.69l-.66.89a2.08,2.08,0,0,0-1.2-.48c-.51,0-.75.22-.75.54s.52.56,1.11.78,1.56.65,1.56,1.69-.77,1.77-2.23,1.77A3.55,3.55,0,0,1,1182.61,811.85Z"/><path class="cls-3" d="M595.63,805.09h2.58c1.55,0,2.78.55,2.78,2.25a2.12,2.12,0,0,1-1.41,2.13l1.73,3h-1.65l-1.52-2.8h-1v2.8h-1.48Zm2.44,3.44c.95,0,1.48-.4,1.48-1.19s-.53-1.07-1.48-1.07h-1v2.26Z"/><path class="cls-3" d="M602,809.7a2.74,2.74,0,0,1,2.61-2.94c1.54,0,2.34,1.13,2.34,2.67a2.76,2.76,0,0,1-.07.68h-3.45a1.47,1.47,0,0,0,1.55,1.4,2.31,2.31,0,0,0,1.26-.39l.5.9a3.53,3.53,0,0,1-2,.62A2.72,2.72,0,0,1,602,809.7Zm3.69-.57c0-.75-.34-1.23-1.06-1.23a1.26,1.26,0,0,0-1.22,1.23Z"/><path class="cls-3" d="M607.86,811c0-1.2,1-1.83,3.23-2.07,0-.55-.27-1-1-1a3.16,3.16,0,0,0-1.54.53l-.53-1a4.47,4.47,0,0,1,2.34-.74c1.42,0,2.15.85,2.15,2.47v3.27h-1.2l-.1-.6h0a2.63,2.63,0,0,1-1.69.74A1.59,1.59,0,0,1,607.86,811Zm3.23,0v-1.13c-1.37.17-1.83.55-1.83,1.05s.31.63.74.63A1.52,1.52,0,0,0,611.09,810.94Z"/><path class="cls-3" d="M613.7,809.7a2.79,2.79,0,0,1,2.86-2.94,2.45,2.45,0,0,1,1.63.62l-.7,1a1.27,1.27,0,0,0-.85-.37c-.86,0-1.44.69-1.44,1.74s.59,1.74,1.39,1.74a1.74,1.74,0,0,0,1.09-.45l.59,1a2.82,2.82,0,0,1-1.84.68A2.68,2.68,0,0,1,613.7,809.7Z"/><path class="cls-3" d="M619.53,810.54v-2.48h-.79V807l.87-.07.17-1.51H621v1.51h1.38v1.16H621v2.48c0,.64.26.94.76.94a1.64,1.64,0,0,0,.55-.12l.24,1.07a3.62,3.62,0,0,1-1.18.21C620,812.64,619.53,811.79,619.53,810.54Z"/><path class="cls-3" d="M688.94,805.09h1.51L692.6,809l.74,1.6h0c-.07-.77-.19-1.75-.19-2.59v-3h1.4v7.41h-1.5l-2.14-4-.75-1.59h-.05c.07.8.18,1.73.18,2.58v3h-1.4Z"/><path class="cls-3" d="M696.43,805.09H701v1.24h-3.06V808h2.6v1.24h-2.6v2h3.17v1.24h-4.65Z"/><path class="cls-3" d="M703.89,808.68l-1.95-3.59h1.64l.74,1.53c.18.35.33.71.55,1.17h0c.18-.46.33-.82.49-1.17l.7-1.53h1.56l-1.95,3.66,2.08,3.75h-1.64l-.83-1.64c-.19-.38-.36-.77-.58-1.22h0c-.18.45-.36.84-.54,1.22l-.79,1.64h-1.57Z"/><path class="cls-3" d="M710.32,806.33h-2.08v-1.24h5.66v1.24h-2.1v6.17h-1.48Z"/><path class="cls-3" d="M714.9,811.68a.92.92,0,1,1,.91,1A.91.91,0,0,1,714.9,811.68Z"/><path class="cls-3" d="M716.9,814.64l.26-1.09a1.45,1.45,0,0,0,.47.08c.47,0,.61-.32.61-1V806.9h1.47v5.74c0,1.2-.46,2.15-1.87,2.15A2.65,2.65,0,0,1,716.9,814.64Zm1.22-9.45a.86.86,0,1,1,.85.81A.79.79,0,0,1,718.12,805.19Z"/><path class="cls-3" d="M720.76,811.85l.67-.92a2.43,2.43,0,0,0,1.5.61c.56,0,.81-.24.81-.59s-.58-.61-1.17-.84-1.5-.7-1.5-1.64.81-1.71,2.09-1.71a3.1,3.1,0,0,1,1.9.69l-.66.89a2.08,2.08,0,0,0-1.2-.48c-.51,0-.75.22-.75.54s.52.56,1.11.78c.74.28,1.56.65,1.56,1.69s-.77,1.77-2.23,1.77A3.55,3.55,0,0,1,720.76,811.85Z"/><path class="cls-3" d="M855.44,805.09h1.64l1.26,3.47c.16.46.3,1,.45,1.42h.05c.16-.47.29-1,.45-1.42l1.23-3.47h1.64v7.41h-1.35v-3.09c0-.7.11-1.73.19-2.43h0l-.6,1.74-1.14,3.11h-.85l-1.15-3.11-.59-1.74h0c.07.7.19,1.73.19,2.43v3.09h-1.33Z"/><path class="cls-3" d="M863.51,809.7a2.7,2.7,0,1,1,2.69,2.94A2.73,2.73,0,0,1,863.51,809.7Zm3.88,0c0-1.05-.43-1.74-1.19-1.74s-1.19.69-1.19,1.74.43,1.74,1.19,1.74S867.39,810.76,867.39,809.7Z"/><path class="cls-3" d="M869.8,809.7c0-1.82,1.14-2.94,2.35-2.94a1.93,1.93,0,0,1,1.42.61l-.05-.88v-2H875v8h-1.19l-.11-.58h0a2.32,2.32,0,0,1-1.55.72C870.7,812.64,869.8,811.54,869.8,809.7Zm3.72,1.15v-2.46a1.51,1.51,0,0,0-1-.42c-.63,0-1.16.6-1.16,1.72s.42,1.74,1.16,1.74A1.27,1.27,0,0,0,873.52,810.85Z"/><path class="cls-3" d="M876.5,810.4v-3.5H878v3.31c0,.86.24,1.17.78,1.17a1.35,1.35,0,0,0,1.14-.7V806.9h1.47v5.6h-1.2l-.11-.8h0a2.25,2.25,0,0,1-1.78.94C877,812.64,876.5,811.8,876.5,810.4Z"/><path class="cls-3" d="M882.93,810.93v-6.41h1.47V811c0,.34.15.45.29.45l.2,0,.18,1.09a2,2,0,0,1-.76.13C883.29,812.64,882.93,812,882.93,810.93Z"/><path class="cls-3" d="M885.73,809.7a2.74,2.74,0,0,1,2.61-2.94c1.54,0,2.34,1.13,2.34,2.67a2.76,2.76,0,0,1-.07.68h-3.45a1.47,1.47,0,0,0,1.55,1.4,2.31,2.31,0,0,0,1.26-.39l.5.9a3.53,3.53,0,0,1-2,.62A2.72,2.72,0,0,1,885.73,809.7Zm3.69-.57c0-.75-.34-1.23-1.06-1.23a1.26,1.26,0,0,0-1.22,1.23Z"/><path class="cls-3" d="M996.62,805.09h1.51l2.15,3.95.74,1.6h.05c-.07-.77-.19-1.75-.19-2.59v-3h1.4v7.41h-1.5l-2.14-4-.75-1.59h0c.07.8.18,1.73.18,2.58v3h-1.4Z"/><path class="cls-3" d="M1003.64,809.7a2.7,2.7,0,1,1,2.69,2.94A2.73,2.73,0,0,1,1003.64,809.7Zm3.88,0c0-1.05-.43-1.74-1.19-1.74s-1.19.69-1.19,1.74.43,1.74,1.19,1.74S1007.52,810.76,1007.52,809.7Z"/><path class="cls-3" d="M1009.93,809.7c0-1.82,1.14-2.94,2.35-2.94a1.93,1.93,0,0,1,1.42.61l-.05-.88v-2h1.46v8h-1.19l-.11-.58h0a2.32,2.32,0,0,1-1.55.72C1010.83,812.64,1009.93,811.54,1009.93,809.7Zm3.72,1.15v-2.46a1.51,1.51,0,0,0-1-.42c-.63,0-1.16.6-1.16,1.72s.42,1.74,1.16,1.74A1.27,1.27,0,0,0,1013.65,810.85Z"/><path class="cls-3" d="M1016.34,809.7a2.74,2.74,0,0,1,2.61-2.94c1.54,0,2.34,1.13,2.34,2.67a2.76,2.76,0,0,1-.07.68h-3.45a1.47,1.47,0,0,0,1.55,1.4,2.31,2.31,0,0,0,1.26-.39l.5.9a3.53,3.53,0,0,1-2,.62A2.72,2.72,0,0,1,1016.34,809.7Zm3.69-.57c0-.75-.34-1.23-1.06-1.23a1.26,1.26,0,0,0-1.22,1.23Z"/><path class="cls-3" d="M1372.74,134l.75,1a1.25,1.25,0,0,0-.77,1.1c0,.65.35,1,1.37,1h4.9v1.48h-5a2.23,2.23,0,0,1-2.53-2.29A2.42,2.42,0,0,1,1372.74,134Z"/><path class="cls-3" d="M1372.52,139.88l1,.85a2.91,2.91,0,0,0-.82,1.88c0,.77.33,1.18.85,1.18s.72-.45,1-1.11l.42-1a2.14,2.14,0,0,1,2-1.5,2.31,2.31,0,0,1,2.14,2.56,3.28,3.28,0,0,1-.95,2.32l-.93-.75a2.36,2.36,0,0,0,.61-1.57c0-.65-.29-1.06-.78-1.06s-.72.52-1,1.15l-.41,1a2,2,0,0,1-2,1.49c-1.21,0-2.24-1-2.24-2.72A3.94,3.94,0,0,1,1372.52,139.88Z"/><path class="cls-3" d="M1375.4,147.92,1379,146v1.64l-1.53.74c-.35.18-.71.33-1.17.55v0c.46.18.82.33,1.17.49l1.53.7v1.56l-3.66-1.95-3.75,2.08v-1.64l1.64-.83,1.22-.58v0c-.45-.18-.84-.36-1.22-.54l-1.64-.79v-1.57Z"/><path class="cls-3" d="M1374.91,275.84H1379v1.47h-4.21c-1.54,0-2.06.54-2.06,1.4s.52,1.44,2.06,1.44H1379v1.42h-4.08c-2.46,0-3.47-1.05-3.47-2.86S1372.45,275.84,1374.91,275.84Z"/><path class="cls-3" d="M1379,283.36v1.47h-7.41v-1.47Z"/><path class="cls-3" d="M1379.64,288.37v1l-9.88-2.48v-1Z"/><path class="cls-3" d="M1374.91,290.49H1379V292h-4.21c-1.54,0-2.06.54-2.06,1.4s.52,1.44,2.06,1.44H1379v1.42h-4.08c-2.46,0-3.47-1.05-3.47-2.86S1372.45,290.49,1374.91,290.49Z"/><path class="cls-3" d="M1375.4,299.32l3.59-1.94V299l-1.53.74c-.35.18-.71.33-1.17.55v.05c.46.18.82.33,1.17.49l1.53.7v1.56l-3.66-2-3.75,2.08v-1.64l1.64-.83,1.22-.58v0c-.45-.18-.84-.36-1.22-.54l-1.64-.79v-1.56Z"/><rect class="cls-2" x="1098.99" y="450.73" width="299.29" height="18.66"/><rect class="cls-2" x="1208.03" y="535.66" width="293.31" height="6.3" transform="translate(815.88 1893.5) rotate(-90)"/><rect class="cls-2" x="1127.32" y="501.83" width="171.25" height="1"/><rect class="cls-2" x="1298.06" y="516.11" width="1" height="171.25"/><rect class="cls-2" x="1111.37" y="615.4" width="137.2" height="5.61" transform="translate(-91.53 1015.44) rotate(-45)"/><path class="cls-3" d="M1379,420.94v2c0,2.26-1.18,3.66-3.68,3.66s-3.73-1.4-3.73-3.58v-2.11Zm-6.22,1.94c0,1.38.74,2.24,2.54,2.24s2.49-.86,2.49-2.24v-.46h-5Z"/><path class="cls-3" d="M1377.18,428v1.47h-5.6V428Zm1.71-.12a.86.86,0,1,1-.81.86A.79.79,0,0,1,1378.89,427.84Z"/><path class="cls-3" d="M1373.1,430.72c1.2,0,1.83,1,2.07,3.23.55,0,1-.27,1-1a3.16,3.16,0,0,0-.53-1.54l1-.53a4.47,4.47,0,0,1,.74,2.34c0,1.42-.85,2.15-2.47,2.15h-3.27v-1.2l.6-.1v0a2.63,2.63,0,0,1-.74-1.69A1.59,1.59,0,0,1,1373.1,430.72Zm0,3.23h1.13c-.17-1.37-.55-1.83-1-1.83s-.63.31-.63.74A1.52,1.52,0,0,0,1373.14,434Z"/><path class="cls-3" d="M1373.15,436.91h6.41v1.47h-6.47c-.34,0-.45.15-.45.29a.83.83,0,0,0,0,.2l-1.09.18a2,2,0,0,1-.13-.76C1371.44,437.27,1372.11,436.91,1373.15,436.91Z"/><path class="cls-3" d="M1374.38,439.71a2.7,2.7,0,1,1-2.94,2.69A2.73,2.73,0,0,1,1374.38,439.71Zm0,3.88c1,0,1.74-.43,1.74-1.19s-.69-1.19-1.74-1.19-1.74.43-1.74,1.19S1373.32,443.59,1374.38,443.59Z"/><path class="cls-3" d="M1370.59,446a1.36,1.36,0,0,1,1.16.8h0a1.06,1.06,0,0,1,.94-.51,1.37,1.37,0,0,1,1,.63h0a1.83,1.83,0,0,1,1.47-.75,2.06,2.06,0,0,1,2,2.26,2.63,2.63,0,0,1-.14.84v2h-1.08v-.95a1.48,1.48,0,0,1-.85.25,1.91,1.91,0,0,1-1.9-2.16,2.38,2.38,0,0,1,.13-.72.57.57,0,0,0-.48-.24c-.3,0-.46.22-.46.88v.95c0,1.35-.42,2.09-1.4,2.09-1.13,0-2-1.18-2-3C1369.15,447,1369.6,446,1370.59,446Zm.3,4c.4,0,.5-.33.5-.93v-.68a3.16,3.16,0,0,1,.08-.78.83.83,0,0,0-.65-.36c-.47,0-.74.52-.74,1.33S1370.45,449.93,1370.89,449.93Zm4.41-.67a.89.89,0,1,0,0-1.76c-.67,0-1,.39-1,.88S1374.63,449.26,1375.3,449.26Z"/><path class="cls-3" d="M1373.15,456h6.41v1.46h-6.47c-.34,0-.45.16-.45.29a.79.79,0,0,0,0,.2l-1.09.18a1.87,1.87,0,0,1-.13-.75C1371.44,456.36,1372.11,456,1373.15,456Zm2.87-3.47v-.75h1.09l.06.75h.46a1.82,1.82,0,0,1,2.07,1.95,3.19,3.19,0,0,1-.19,1.06l-1.09-.27a1.59,1.59,0,0,0,.12-.59c0-.44-.26-.68-.88-.68h-.48v1.05H1376V454h-4.44v-1.47Z"/><path class="cls-3" d="M1374.38,458.81a2.7,2.7,0,1,1-2.94,2.69A2.73,2.73,0,0,1,1374.38,458.81Zm0,3.88c1,0,1.74-.43,1.74-1.19s-.69-1.19-1.74-1.19-1.74.43-1.74,1.19S1373.32,462.69,1374.38,462.69Z"/><path class="cls-3" d="M1377.18,464.9v1.47l-2.76.61c-.55.11-1.08.18-1.64.28v0c.56.11,1.1.21,1.64.35l2.76.68v1.3l-2.76.7c-.55.13-1.08.23-1.64.35v.05l1.64.28,2.76.61V473l-5.6-1.38v-1.73l2.44-.59c.53-.12,1-.21,1.63-.32v0c-.59-.11-1.11-.19-1.63-.31l-2.44-.57v-1.68Z"/><path d="M1366.74,566.84l1.84,1.53a5.28,5.28,0,0,0-1.48,3.39c0,1.39.6,2.12,1.53,2.12s1.3-.81,1.81-2l.75-1.79a3.86,3.86,0,0,1,3.58-2.7c2.18,0,3.86,1.91,3.86,4.61a5.91,5.91,0,0,1-1.71,4.18l-1.68-1.35a4.23,4.23,0,0,0,1.1-2.83c0-1.17-.52-1.91-1.4-1.91s-1.3.94-1.75,2.07l-.74,1.75a3.67,3.67,0,0,1-3.62,2.68c-2.18,0-4-1.82-4-4.89A7.12,7.12,0,0,1,1366.74,566.84Z"/><path d="M1371.66,578.29c4.39,0,7,2.83,7,6.2a5.42,5.42,0,0,1-1.71,3.9l-1.7-1.38a3.52,3.52,0,0,0,1.12-2.47c0-2-1.73-3.53-4.59-3.53s-4.65,1.37-4.65,3.48a3.65,3.65,0,0,0,1.32,2.75l-1.66,1.41a5.4,5.4,0,0,1-2-4.25C1364.8,581,1367.21,578.29,1371.66,578.29Z"/><path d="M1378.39,590.78v4.65c0,2.79-1,5-4.05,5a3.8,3.8,0,0,1-3.83-2.54l-5.46,3.11v-3l5-2.74v-1.85h-5v-2.67Zm-6.19,4.4c0,1.71.72,2.66,2.14,2.66s1.93-1,1.93-2.66v-1.73h-4.07Z"/><path d="M1371.77,602.39c4.34,0,6.86,2.43,6.86,6s-2.54,6-6.86,6-7-2.43-7-6S1367.45,602.39,1371.77,602.39Zm0,9.2c2.86,0,4.57-1.26,4.57-3.24s-1.71-3.24-4.57-3.24-4.67,1.26-4.67,3.24S1368.92,611.59,1371.77,611.59Z"/><path d="M1378.39,616.92v2.67h-11.11V625h-2.23v-8.08Z"/><path d="M1378.39,627.32V630h-11.11v5.42h-2.23v-8.09Z"/><path d="M1378.39,650v3.65c0,4.07-2.12,6.59-6.62,6.59s-6.72-2.52-6.72-6.45V650Zm-11.2,3.49c0,2.48,1.34,4,4.58,4s4.48-1.55,4.48-4v-.83h-9.06Z"/><path d="M1371.77,662.17c4.34,0,6.86,2.43,6.86,6s-2.54,6-6.86,6-7-2.43-7-6S1367.45,662.17,1371.77,662.17Zm0,9.2c2.86,0,4.57-1.26,4.57-3.24s-1.71-3.24-4.57-3.24-4.67,1.26-4.67,3.24S1368.92,671.37,1371.77,671.37Z"/><path d="M1378.39,675.4v2.7l-6.51,1.06c-1.41.2-2.81.42-4.25.62v.07c1.44.27,2.86.56,4.25.84l6.51,1.55v2.29l-6.51,1.53c-1.37.29-2.81.56-4.25.85V687l4.25.59,6.51,1.06v2.52l-13.34-2.46v-3.32l6.59-1.49c1-.22,2.07-.41,3.1-.58v-.07c-1-.18-2-.36-3.1-.57l-6.59-1.46V678Z"/><path d="M1378.39,693.17v2.72l-7.11,3.87-2.88,1.33v.09c1.39-.13,3.15-.34,4.66-.34h5.33v2.52h-13.34v-2.7l7.13-3.86,2.86-1.35v-.09c-1.44.13-3.11.33-4.64.33h-5.35v-2.52Z"/><rect class="cls-2" x="889.47" y="371.58" width="8.24" height="8.24"/><rect class="cls-2" x="910.03" y="371.58" width="8.24" height="8.24"/><rect class="cls-2" x="930.6" y="371.58" width="8.24" height="8.24"/><rect class="cls-2" x="530.03" y="373" width="5.4" height="5.4"/><rect class="cls-2" x="543.49" y="373" width="5.4" height="5.4"/><rect class="cls-2" x="556.95" y="373" width="5.4" height="5.4"/><rect class="cls-2" x="287.23" y="751.76" width="10.7" height="10.7"/><rect class="cls-2" x="313.93" y="751.76" width="10.7" height="10.7"/><rect class="cls-2" x="340.64" y="751.76" width="10.7" height="10.7"/><polygon points="1371.58 760.96 1362.83 752.48 1363.52 751.76 1371.58 759.57 1379.64 751.76 1380.34 752.48 1371.58 760.96"/><rect class="cls-2" x="180.44" y="806.74" width="307.6" height="5.76"/><rect class="cls-2" x="1096.25" y="105" width="344.89" height="5.76"/><rect class="cls-2" x="1080.92" y="140.31" width="36.15" height="185.09"/><rect class="cls-2" x="1153.22" y="209.6" width="36.15" height="185.09"/><rect class="cls-2" x="948.79" y="375.39" width="267.91" height="4.54"/><rect class="cls-2" x="153.55" y="474.38" width="14.64" height="14.64"/><rect class="cls-2" x="487.12" y="631.56" width="16.44" height="16.44"/><rect class="cls-2" x="787.06" y="739.7" width="7.94" height="7.94"/><rect class="cls-2" x="515.16" y="223.51" width="239.77" height="5.15" transform="translate(408.96 861.14) rotate(-90)"/><rect class="cls-2" x="548.38" y="195.97" width="139.99" height="0.6"/><rect class="cls-2" x="642.04" y="171.93" width="112.16" height="26.63" transform="translate(1396.25 370.5) rotate(-180)"/><rect class="cls-2" x="86.55" y="659.32" width="161.33" height="10.36"/><rect class="cls-2" x="147.56" y="669.68" width="161.33" height="22.03"/><rect class="cls-2" x="265.92" y="621.66" width="8.99" height="171.54" transform="translate(579.43 15.99) rotate(45)"/><rect class="cls-2" x="1245.5" y="188.47" width="58.73" height="2.4" transform="translate(239.28 957.01) rotate(-45)"/><rect class="cls-2" x="52.22" y="809.62" width="307.6" height="2.88"/><rect class="cls-2" x="618.03" y="579.39" width="307.6" height="5.76"/><rect class="cls-2" x="489.8" y="582.28" width="307.6" height="2.88"/><rect class="cls-2" x="4.73" y="435.85" width="696.72" height="6.4"/><path class="cls-4" d="M137.14,329.92q0,6.39-3.3,9.67t-9.47,3.27a37.65,37.65,0,0,1-6.39-.5v-24.2a39.06,39.06,0,0,1,6.39-.5q6.15,0,9.46,3.17T137.14,329.92Zm-3.53,0c0-3-.79-5.34-2.35-6.9s-3.87-2.34-6.89-2.34a13.51,13.51,0,0,0-2.69.24V339.6a13.51,13.51,0,0,0,2.69.24c3.13,0,5.46-.81,7-2.44S133.61,333.29,133.61,329.92Z"/><path class="cls-4" d="M147.52,321v7h10.42v2.89H147.52v8.6h11.09v3H143.83V318h14.78v3Z"/><path class="cls-4" d="M173.54,320.62a4.78,4.78,0,0,0-3.16.92,3.09,3.09,0,0,0-1.11,2.5c0,1.86,1.36,3.21,4.1,4q4.4,1.25,6.23,3.09a6.52,6.52,0,0,1,1.83,4.8,6.28,6.28,0,0,1-2.13,5.11,9.26,9.26,0,0,1-6.1,1.78,14.54,14.54,0,0,1-7.56-2l1-3a11.52,11.52,0,0,0,6.55,2,5,5,0,0,0,3.36-1,3.57,3.57,0,0,0,1.18-2.86,3.9,3.9,0,0,0-.94-2.75,8,8,0,0,0-3.43-1.78,14.18,14.18,0,0,1-5.87-3,5.93,5.93,0,0,1-1.86-4.41,5.75,5.75,0,0,1,2.1-4.64,8.82,8.82,0,0,1,5.8-1.74,17.37,17.37,0,0,1,7.22,1.51l-.84,2.86A14.51,14.51,0,0,0,173.54,320.62Z"/><path class="cls-4" d="M189.63,342.53V318h4v24.54Z"/><path class="cls-4" d="M219.18,330.9h-7.73V328h11.26v13a18.35,18.35,0,0,1-8.24,1.84q-6,0-9.66-3.41a12,12,0,0,1-3.61-9.19,12.31,12.31,0,0,1,3.47-9.19q3.48-3.4,9.47-3.41a14.18,14.18,0,0,1,7.62,2l-1.17,2.69a11.67,11.67,0,0,0-6.12-1.78,9.23,9.23,0,0,0-7,2.62,9.7,9.7,0,0,0-2.52,7,9.4,9.4,0,0,0,2.66,7,9.78,9.78,0,0,0,7.19,2.61,11,11,0,0,0,4.37-.84Z"/><path class="cls-4" d="M230.57,342.53V318h3.63l11.49,18.32h.07V318h3.63v24.54h-3.63l-11.49-18.32h-.07v18.32Z"/><path class="cls-4" d="M286.73,335.47q0,7.39-9.75,7.39a41.92,41.92,0,0,1-6.72-.5v-24.2a39.15,39.15,0,0,1,6.39-.5q9.08,0,9.07,6a5.13,5.13,0,0,1-1.38,3.54,6.38,6.38,0,0,1-3.66,2v.07a7.65,7.65,0,0,1,4.44,2.08A5.64,5.64,0,0,1,286.73,335.47ZM274,328h1.34a11.18,11.18,0,0,0,5.33-.94,3.08,3.08,0,0,0,1.63-2.86,3,3,0,0,0-1.31-2.72,8,8,0,0,0-4.3-.87,13.56,13.56,0,0,0-2.69.23Zm0,2.89v8.77a16.88,16.88,0,0,0,3,.24,7.44,7.44,0,0,0,4.64-1.18,4.3,4.3,0,0,0,1.48-3.6,3.45,3.45,0,0,0-1.78-3.21c-1.19-.68-3.19-1-6-1Z"/><path class="cls-4" d="M297.12,321v7h10.41v2.89H297.12v8.6h11.09v3H293.42V318h14.79v3Z"/><path class="cls-4" d="M318.56,318l6.28,11.43h.07L331.19,318h4.21l-8.64,14.46v10.08h-3.9V332.45L314.22,318Z"/><path class="cls-4" d="M343.53,321.09a13,13,0,0,1,17.61,0,14.44,14.44,0,0,1,0,18.35,13,13,0,0,1-17.61,0,14.4,14.4,0,0,1,0-18.35Zm2.75,16.18a8.41,8.41,0,0,0,12.1,0,11.87,11.87,0,0,0,0-14,8.41,8.41,0,0,0-12.1,0,11.92,11.92,0,0,0,0,14Z"/><path class="cls-4" d="M371.12,342.53V318h3.63l11.49,18.32h.07V318h3.63v24.54h-3.63l-11.49-18.32h-.07v18.32Z"/><path class="cls-4" d="M417.3,329.92q0,6.39-3.29,9.67t-9.48,3.27a37.65,37.65,0,0,1-6.39-.5v-24.2a39.15,39.15,0,0,1,6.39-.5q6.15,0,9.46,3.17T417.3,329.92Zm-3.53,0q0-4.56-2.35-6.9t-6.89-2.34a13.51,13.51,0,0,0-2.69.24V339.6a13.51,13.51,0,0,0,2.69.24c3.13,0,5.46-.81,7-2.44S413.77,333.29,413.77,329.92Z"/><path class="cls-4" d="M453.13,335.47q0,7.39-9.75,7.39a41.74,41.74,0,0,1-6.72-.5v-24.2a39,39,0,0,1,6.38-.5q9.07,0,9.08,6a5.13,5.13,0,0,1-1.38,3.54,6.38,6.38,0,0,1-3.66,2v.07a7.59,7.59,0,0,1,4.43,2.08A5.61,5.61,0,0,1,453.13,335.47ZM440.35,328h1.35a11.21,11.21,0,0,0,5.33-.94,3.1,3.1,0,0,0,1.63-2.86,3,3,0,0,0-1.31-2.72,8.08,8.08,0,0,0-4.31-.87,13.7,13.7,0,0,0-2.69.23Zm0,2.89v8.77a17.08,17.08,0,0,0,3,.24,7.46,7.46,0,0,0,4.64-1.18,4.33,4.33,0,0,0,1.48-3.6,3.46,3.46,0,0,0-1.79-3.21c-1.18-.68-3.19-1-6-1Z"/><path class="cls-4" d="M461.6,321.09a13,13,0,0,1,17.61,0,14.44,14.44,0,0,1,0,18.35,13,13,0,0,1-17.61,0,14.4,14.4,0,0,1,0-18.35Zm2.75,16.18a8.41,8.41,0,0,0,12.1,0,11.87,11.87,0,0,0,0-14,8.41,8.41,0,0,0-12.1,0,11.92,11.92,0,0,0,0,14Z"/><path class="cls-4" d="M492.62,318v14.79q0,7,5.54,7t5.55-7V318h3.63v14.62c0,3.39-.8,5.94-2.39,7.67s-3.88,2.58-6.86,2.58-5.26-.86-6.85-2.58-2.39-4.28-2.39-7.67V318Z"/><path class="cls-4" d="M515.2,342.53V318h3.63l11.49,18.32h.07V318H534v24.54h-3.63L518.9,324.21h-.07v18.32Z"/><path class="cls-4" d="M561.38,329.92q0,6.39-3.29,9.67t-9.48,3.27a37.65,37.65,0,0,1-6.39-.5v-24.2a39.15,39.15,0,0,1,6.39-.5q6.15,0,9.46,3.17T561.38,329.92Zm-3.53,0q0-4.56-2.35-6.9t-6.89-2.34a13.51,13.51,0,0,0-2.69.24V339.6a13.51,13.51,0,0,0,2.69.24c3.13,0,5.46-.81,7-2.44S557.85,333.29,557.85,329.92Z"/><path class="cls-4" d="M566.39,342.53,575.12,318h4l8.74,24.54h-4L581.81,336h-9.47l-2.12,6.52Zm6.85-9.41h7.67l-3.8-11.77H577Z"/><path class="cls-4" d="M598.11,332.45v10.08h-3.69V318.16a43.29,43.29,0,0,1,6.72-.5q4.83,0,7.29,1.78a5.75,5.75,0,0,1,2.45,4.94,7.23,7.23,0,0,1-1.31,4.37,6.51,6.51,0,0,1-3.56,2.48v.07q1.44.88,2.69,4l2.86,7.23h-3.84l-2.79-7.23a4.59,4.59,0,0,0-1.56-2.33,6.85,6.85,0,0,0-3.24-.52Zm0-2.9h2q7.13,0,7.12-4.83a3.46,3.46,0,0,0-1.53-3.08,9.12,9.12,0,0,0-4.92-1,13.63,13.63,0,0,0-2.69.23Z"/><path class="cls-4" d="M619.25,342.53V318h4v24.54Z"/><path class="cls-4" d="M636,321v7h10.42v2.89H636v8.6h11.09v3H632.33V318h14.78v3Z"/><path class="cls-4" d="M662,320.62a4.78,4.78,0,0,0-3.16.92,3.09,3.09,0,0,0-1.11,2.5c0,1.86,1.36,3.21,4.1,4q4.39,1.25,6.23,3.09a6.52,6.52,0,0,1,1.83,4.8,6.28,6.28,0,0,1-2.13,5.11,9.26,9.26,0,0,1-6.1,1.78,14.54,14.54,0,0,1-7.56-2l1-3a11.52,11.52,0,0,0,6.55,2,5,5,0,0,0,3.36-1,3.57,3.57,0,0,0,1.18-2.86,3.9,3.9,0,0,0-.94-2.75,8,8,0,0,0-3.43-1.78,14.18,14.18,0,0,1-5.87-3,5.93,5.93,0,0,1-1.86-4.41,5.75,5.75,0,0,1,2.1-4.64,8.82,8.82,0,0,1,5.8-1.74,17.37,17.37,0,0,1,7.22,1.51l-.84,2.86A14.51,14.51,0,0,0,662,320.62Z"/><path class="cls-4" d="M132.93,379.5H121.06v9.41h11.2v1.41h-11.2v12.27h-1.68V378.06h13.55Z"/><path class="cls-4" d="M150.27,401.45q7,0,7-8.17V378.06h1.68v15.19c0,3.14-.75,5.53-2.25,7.19a9.61,9.61,0,0,1-12.89,0q-2.24-2.47-2.24-7.21V378.06h1.72v15.22Q143.28,401.46,150.27,401.45Z"/><path class="cls-4" d="M169.8,378.06v23.05h12.7v1.48H168.05V378.06Z"/><path class="cls-4" d="M192.88,378.06v23.05h12.71v1.48H191.14V378.06Z"/><path class="cls-4" d="M220.71,379.17a6.34,6.34,0,0,0-4,1.12,3.76,3.76,0,0,0-1.43,3.14c0,2.47,1.82,4.26,5.48,5.38a13,13,0,0,1,5.61,3,6.37,6.37,0,0,1,1.71,4.6,6.11,6.11,0,0,1-1.93,4.86,8.13,8.13,0,0,1-5.53,1.7,12,12,0,0,1-7.22-2.25l.6-1.35a10.76,10.76,0,0,0,6.62,2.15,6.25,6.25,0,0,0,4.3-1.31,4.79,4.79,0,0,0,1.48-3.8,5,5,0,0,0-1.33-3.64,10.4,10.4,0,0,0-4.45-2.37q-7-2.08-7-6.93a5.15,5.15,0,0,1,1.87-4.15,7.89,7.89,0,0,1,5.22-1.56,14.85,14.85,0,0,1,6.89,1.61l-.47,1.35A13.35,13.35,0,0,0,220.71,379.17Z"/><path class="cls-4" d="M235.84,378.06h17.71v1.48h-8v23h-1.68v-23h-8Z"/><path class="cls-4" d="M260.47,402.59l9.18-24.53h2l9.21,24.53h-1.81l-2.83-7.76H265l-2.82,7.76Zm5.11-9.17h10.15l-5-13.88h-.07Z"/><path class="cls-4" d="M299.22,379.17a9.82,9.82,0,0,0-7.58,3,13.1,13.1,0,0,0,.05,16.25,9.86,9.86,0,0,0,7.53,3,12.19,12.19,0,0,0,6.76-2l.63,1.31a13.08,13.08,0,0,1-7.49,2.15,11.51,11.51,0,0,1-8.72-3.43,12.71,12.71,0,0,1-3.28-9.18q0-5.81,3.24-9.2a11.55,11.55,0,0,1,8.76-3.4,13.08,13.08,0,0,1,7.49,2.15l-.63,1.31A12,12,0,0,0,299.22,379.17Z"/><path class="cls-4" d="M317.1,378.06v11.12h.07l12.13-11.12h2.15l-12.9,11.76,13.24,12.77h-2.15l-12.47-12.13h-.07v12.13h-1.68V378.06Z"/><path class="cls-4" d="M370.87,390q0,6.31-3.29,9.63c-2.2,2.2-5.35,3.31-9.48,3.31a25.91,25.91,0,0,1-5.48-.54V378.26a26.52,26.52,0,0,1,5.48-.54c4.13,0,7.28,1.06,9.48,3.18S370.87,386.05,370.87,390ZM358.1,379.17a19.18,19.18,0,0,0-3.79.4v21.51a19.18,19.18,0,0,0,3.79.4c3.65,0,6.43-1,8.32-2.92s2.84-4.81,2.84-8.57q0-5.31-2.84-8.07C364.53,380.09,361.75,379.17,358.1,379.17Z"/><path class="cls-4" d="M380.52,379.5v9.08h11.53V390H380.52v11.16h12.2v1.44H378.84V378.06h13.88v1.44Z"/><path class="cls-4" d="M408.35,379.17a6.35,6.35,0,0,0-4,1.12,3.78,3.78,0,0,0-1.43,3.14q0,3.7,5.48,5.38a12.94,12.94,0,0,1,5.61,3,6.34,6.34,0,0,1,1.72,4.6,6.15,6.15,0,0,1-1.93,4.86,8.15,8.15,0,0,1-5.53,1.7,12,12,0,0,1-7.23-2.25l.61-1.35a10.74,10.74,0,0,0,6.62,2.15,6.27,6.27,0,0,0,4.3-1.31,4.82,4.82,0,0,0,1.48-3.8,5.08,5.08,0,0,0-1.33-3.64,10.47,10.47,0,0,0-4.45-2.37q-7-2.08-7-6.93a5.17,5.17,0,0,1,1.86-4.15,7.94,7.94,0,0,1,5.23-1.56,14.88,14.88,0,0,1,6.89,1.61l-.47,1.35A13.38,13.38,0,0,0,408.35,379.17Z"/><path class="cls-4" d="M425.49,402.59V378.06h1.78v24.53Z"/><path class="cls-4" d="M448.91,379.17a10.42,10.42,0,0,0-7.91,3,12.9,12.9,0,0,0,.05,16.31,10.57,10.57,0,0,0,8,3,15.74,15.74,0,0,0,6.62-1.31V390h-9.3v-1.41h10.92v12.53a18.53,18.53,0,0,1-8.34,1.82,12.29,12.29,0,0,1-9.09-3.43,14.16,14.16,0,0,1-.07-18.35,12,12,0,0,1,9-3.43,14.07,14.07,0,0,1,7.59,2l-.63,1.27A13,13,0,0,0,448.91,379.17Z"/><path class="cls-4" d="M466.39,402.59V378.06h1.92l14,22h.07v-22h1.68v24.53h-2l-14-22H468v22Z"/><path class="cls-4" d="M517.21,379.17a9.81,9.81,0,0,0-7.58,3,11.5,11.5,0,0,0-2.81,8.13,11.35,11.35,0,0,0,2.86,8.12,9.83,9.83,0,0,0,7.53,3,12.13,12.13,0,0,0,6.75-2l.64,1.31a13.14,13.14,0,0,1-7.5,2.15,11.53,11.53,0,0,1-8.72-3.43,12.75,12.75,0,0,1-3.27-9.18q0-5.81,3.24-9.2a11.51,11.51,0,0,1,8.75-3.4,13.14,13.14,0,0,1,7.5,2.15l-.64,1.31A12,12,0,0,0,517.21,379.17Z"/><path class="cls-4" d="M552.38,399.47a12.46,12.46,0,0,1-17.23,0,14.46,14.46,0,0,1,0-18.29,12.46,12.46,0,0,1,17.23,0,14.42,14.42,0,0,1,0,18.29Zm-16-1.05a10.39,10.39,0,0,0,14.73,0,13.06,13.06,0,0,0,0-16.19,10.39,10.39,0,0,0-14.73,0,13.14,13.14,0,0,0,0,16.19Z"/><path class="cls-4" d="M581.83,390q0,6.31-3.29,9.63t-9.48,3.31a25.74,25.74,0,0,1-5.47-.54V378.26a26.36,26.36,0,0,1,5.47-.54q6.2,0,9.48,3.18C580.74,383,581.83,386.05,581.83,390Zm-12.77-10.82a19.25,19.25,0,0,0-3.79.4v21.51a19.25,19.25,0,0,0,3.79.4q5.49,0,8.32-2.92t2.84-8.57q0-5.31-2.84-8.07T569.06,379.17Z"/><path class="cls-4" d="M591,402.59V378.06h1.78v24.53Z"/><path class="cls-4" d="M603.41,402.59V378.06h1.92l14,22h.06v-22h1.68v24.53h-2l-14-22h-.07v22Z"/><path class="cls-4" d="M641.56,379.17a10.46,10.46,0,0,0-7.92,3,11.3,11.3,0,0,0-2.87,8.16,11.18,11.18,0,0,0,2.92,8.15,10.59,10.59,0,0,0,8,3,15.77,15.77,0,0,0,6.62-1.31V390H639v-1.41h10.92v12.53a18.51,18.51,0,0,1-8.33,1.82,12.26,12.26,0,0,1-9.09-3.43,12.42,12.42,0,0,1-3.42-9.18,12.56,12.56,0,0,1,3.35-9.17,12,12,0,0,1,9-3.43,14.13,14.13,0,0,1,7.6,2l-.64,1.27A12.94,12.94,0,0,0,641.56,379.17Z"/><rect class="cls-2" x="704.21" y="446.55" width="8.37" height="8.37"/><rect class="cls-2" x="725.08" y="446.55" width="8.37" height="8.37"/><rect class="cls-2" x="745.96" y="446.55" width="8.37" height="8.37"/><rect class="cls-2" x="781.49" y="537.15" width="7.55" height="185.5" transform="translate(1415.16 -155.36) rotate(90)"/><rect class="cls-2" x="884.99" y="578.42" width="18.12" height="110.5" transform="translate(1527.72 -260.37) rotate(90)"/><rect class="cls-2" x="873.48" y="582.65" width="9.06" height="185.5" transform="translate(1756.02 1350.8) rotate(180)"/><rect class="cls-2" x="842.61" y="673.39" width="4.7" height="96.34" transform="translate(757.71 -386.13) rotate(45)"/><rect class="cls-2" x="789.61" y="627.23" width="4.7" height="96.34" transform="translate(709.54 -362.18) rotate(45)"/><rect class="cls-2" x="204.59" y="610.32" width="4.7" height="215.11" transform="translate(568.23 63.93) rotate(45)"/><line class="cls-5" x1="24.76" y1="292.33" x2="297.09" y2="20"/><line class="cls-5" x1="532.96" y1="724.81" x2="805.29" y2="452.48"/><line class="cls-5" x1="513.82" y1="727.56" x2="786.15" y2="455.23"/><line class="cls-5" x1="233.29" y1="691.54" x2="505.62" y2="419.2"/><line class="cls-5" x1="641.3" y1="257.59" x2="897.17" y2="1.72"/><polygon class="cls-5" points="539.28 693.94 531.88 693.94 538.24 673.6 531.88 653.26 539.28 653.26 545.64 673.6 539.28 693.94"/><polygon class="cls-5" points="571.45 707.41 559.14 707.41 569.72 673.6 559.14 639.79 571.45 639.79 582.03 673.6 571.45 707.41"/><rect class="cls-2" x="284.31" y="224.07" width="184.84" height="0.6"/></g></g></svg>