<?xml version="1.0" encoding="UTF-8"?>
<svg id="_レイヤー_2" data-name="レイヤー 2" xmlns="http://www.w3.org/2000/svg" viewBox="0 0 1441.14 894.32">
  <defs>
    <style>
      .cls-1 {
        fill: #eceae2;
      }

      .cls-2 {
        fill: #fc0;
      }

      .cls-3 {
        fill: #161616;
      }

      .cls-4 {
        fill: #565656;
      }

      .cls-5 {
        fill: none;
        stroke: #fc0;
        stroke-miterlimit: 10;
      }
    </style>
  </defs>
  <g id="newDesign">
    <rect class="cls-1" y="0" width="1440" height="894.32"/>
    <rect class="cls-1" y="0" width="1440" height="894.32"/>
    <rect class="cls-1" x="292.84" y="-252.84" width="854.32" height="1400" transform="translate(1167.16 -272.84) rotate(90)"/>
    <g>
      <g>
        <rect class="cls-2" x="45.83" y="61.71" width="21.28" height="112.94" transform="translate(174.65 61.71) rotate(90)"/>
        <rect class="cls-2" x="117.04" y="91.05" width="10.64" height="64.91" transform="translate(245.86 1.14) rotate(90)"/>
        <rect class="cls-2" x="101" y="93.53" width="14.6" height="108.97" transform="translate(216.6 296.02) rotate(180)"/>
        <rect class="cls-2" x="52.98" y="131.5" width="2.76" height="126.31" transform="translate(153.56 18.58) rotate(45)"/>
        <polygon class="cls-2" points="0 236.72 0 229.78 80.05 149.73 83.52 153.2 0 236.72"/>
        <rect class="cls-2" x="168.84" y="141.71" width="2.76" height="56.59" transform="translate(-70.36 170.16) rotate(-45)"/>
      </g>
      <rect class="cls-2" x="115.6" y="128.82" width="15.27" height="15.27"/>
      <rect class="cls-2" x="158.63" y="85.89" width="35.25" height="28.34"/>
    </g>
    <g>
      <path class="cls-4" d="m1149.79,806.33h-2.08v-1.24h5.66v1.24h-2.1v6.17h-1.48v-6.17Z"/>
      <path class="cls-4" d="m1154.45,804.52h1.47v2.01l-.07,1.05c.45-.42,1-.82,1.76-.82,1.21,0,1.73.84,1.73,2.25v3.49h-1.47v-3.31c0-.87-.24-1.17-.79-1.17-.46,0-.75.22-1.16.63v3.85h-1.47v-7.98Z"/>
      <path class="cls-4" d="m1160.85,806.9h1.2l.11.99h.03c.41-.73,1.01-1.13,1.59-1.13.31,0,.49.05.66.12l-.25,1.27c-.2-.06-.36-.09-.59-.09-.44,0-.97.29-1.28,1.1v3.34h-1.47v-5.6Z"/>
      <path class="cls-4" d="m1164.86,809.7c0-1.81,1.28-2.94,2.61-2.94,1.54,0,2.34,1.13,2.34,2.67,0,.28-.03.55-.07.68h-3.45c.12.92.72,1.4,1.55,1.4.46,0,.86-.14,1.26-.39l.5.9c-.55.38-1.26.62-1.95.62-1.57,0-2.79-1.09-2.79-2.94Zm3.69-.57c0-.75-.34-1.23-1.06-1.23-.59,0-1.11.42-1.22,1.23h2.28Z"/>
      <path class="cls-4" d="m1170.67,809.7c0-1.81,1.28-2.94,2.61-2.94,1.54,0,2.34,1.13,2.34,2.67,0,.28-.03.55-.07.68h-3.45c.12.92.72,1.4,1.55,1.4.46,0,.86-.14,1.26-.39l.5.9c-.55.38-1.26.62-1.95.62-1.57,0-2.79-1.09-2.79-2.94Zm3.69-.57c0-.75-.34-1.23-1.06-1.23-.59,0-1.11.42-1.22,1.23h2.28Z"/>
      <path class="cls-4" d="m1176.75,811.68c0-.55.39-.96.91-.96s.92.41.92.96-.39.96-.92.96-.91-.42-.91-.96Z"/>
      <path class="cls-4" d="m1178.75,814.64l.26-1.09c.15.05.3.08.47.08.47,0,.61-.32.61-.95v-5.78h1.47v5.74c0,1.2-.46,2.15-1.87,2.15-.43,0-.72-.07-.94-.15Zm1.22-9.44c0-.48.35-.8.85-.8s.86.32.86.8-.35.81-.86.81-.85-.32-.85-.81Z"/>
      <path class="cls-4" d="m1182.61,811.85l.67-.92c.5.39.98.61,1.5.61.56,0,.81-.24.81-.59,0-.42-.58-.61-1.17-.84-.71-.27-1.5-.7-1.5-1.64,0-1,.81-1.71,2.09-1.71.81,0,1.44.34,1.9.69l-.66.89c-.4-.29-.79-.48-1.2-.48-.51,0-.75.22-.75.54,0,.41.52.56,1.11.78.74.28,1.56.65,1.56,1.69,0,.98-.77,1.77-2.23,1.77-.75,0-1.57-.33-2.13-.79Z"/>
    </g>
    <g>
      <path class="cls-4" d="m595.63,805.09h2.58c1.55,0,2.78.55,2.78,2.25,0,1.11-.56,1.8-1.41,2.13l1.73,3.03h-1.65l-1.52-2.8h-1.03v2.8h-1.48v-7.41Zm2.44,3.44c.95,0,1.48-.4,1.48-1.19s-.53-1.07-1.48-1.07h-.96v2.26h.96Z"/>
      <path class="cls-4" d="m601.98,809.7c0-1.81,1.28-2.94,2.61-2.94,1.54,0,2.34,1.13,2.34,2.67,0,.28-.03.55-.07.68h-3.45c.12.92.72,1.4,1.55,1.4.46,0,.86-.14,1.26-.39l.5.9c-.55.38-1.26.62-1.95.62-1.57,0-2.79-1.09-2.79-2.94Zm3.69-.57c0-.75-.34-1.23-1.06-1.23-.59,0-1.11.42-1.22,1.23h2.28Z"/>
      <path class="cls-4" d="m607.86,810.98c0-1.2.97-1.83,3.23-2.07-.03-.55-.27-.97-.96-.97-.52,0-1.02.23-1.54.53l-.53-.97c.66-.41,1.46-.74,2.34-.74,1.42,0,2.15.85,2.15,2.47v3.27h-1.2l-.1-.6h-.04c-.49.42-1.05.74-1.69.74-1,0-1.66-.71-1.66-1.66Zm3.23-.04v-1.13c-1.37.17-1.83.55-1.83,1.05,0,.44.31.63.74.63s.73-.2,1.09-.55Z"/>
      <path class="cls-4" d="m613.7,809.7c0-1.86,1.34-2.94,2.86-2.94.69,0,1.22.27,1.63.62l-.7.95c-.28-.24-.54-.37-.85-.37-.86,0-1.44.69-1.44,1.74s.59,1.74,1.39,1.74c.4,0,.78-.19,1.09-.45l.59.97c-.54.47-1.22.68-1.84.68-1.55,0-2.73-1.08-2.73-2.94Z"/>
      <path class="cls-4" d="m619.53,810.54v-2.48h-.79v-1.09l.87-.07.17-1.51h1.22v1.51h1.38v1.16h-1.38v2.48c0,.64.26.94.76.94.18,0,.4-.06.55-.12l.24,1.07c-.3.1-.69.21-1.18.21-1.33,0-1.84-.85-1.84-2.1Z"/>
    </g>
    <g>
      <path class="cls-4" d="m688.94,805.09h1.51l2.15,3.95.74,1.6h.05c-.07-.77-.19-1.75-.19-2.59v-2.96h1.4v7.41h-1.5l-2.14-3.96-.75-1.59h-.05c.07.8.18,1.73.18,2.58v2.97h-1.4v-7.41Z"/>
      <path class="cls-4" d="m696.43,805.09h4.54v1.24h-3.06v1.71h2.6v1.24h-2.6v1.98h3.17v1.24h-4.65v-7.41Z"/>
      <path class="cls-4" d="m703.89,808.68l-1.95-3.59h1.64l.74,1.53c.18.35.33.71.55,1.17h.05c.18-.46.33-.82.49-1.17l.7-1.53h1.56l-1.95,3.66,2.08,3.75h-1.64l-.83-1.64c-.19-.38-.36-.77-.58-1.22h-.04c-.18.45-.36.84-.54,1.22l-.79,1.64h-1.57l2.08-3.82Z"/>
      <path class="cls-4" d="m710.32,806.33h-2.08v-1.24h5.66v1.24h-2.1v6.17h-1.48v-6.17Z"/>
      <path class="cls-4" d="m714.9,811.68c0-.55.39-.96.91-.96s.92.41.92.96-.39.96-.92.96-.91-.42-.91-.96Z"/>
      <path class="cls-4" d="m716.9,814.64l.26-1.09c.15.05.3.08.47.08.47,0,.61-.32.61-.95v-5.78h1.47v5.74c0,1.2-.46,2.15-1.87,2.15-.43,0-.72-.07-.94-.15Zm1.22-9.44c0-.48.35-.8.85-.8s.86.32.86.8-.35.81-.86.81-.85-.32-.85-.81Z"/>
      <path class="cls-4" d="m720.76,811.85l.67-.92c.5.39.98.61,1.5.61.56,0,.81-.24.81-.59,0-.42-.58-.61-1.17-.84-.71-.27-1.5-.7-1.5-1.64,0-1,.81-1.71,2.09-1.71.81,0,1.44.34,1.9.69l-.66.89c-.4-.29-.79-.48-1.2-.48-.51,0-.75.22-.75.54,0,.41.52.56,1.11.78.74.28,1.56.65,1.56,1.69,0,.98-.77,1.77-2.23,1.77-.75,0-1.57-.33-2.13-.79Z"/>
    </g>
    <g>
      <path class="cls-4" d="m855.44,805.09h1.64l1.26,3.47c.16.46.3.95.45,1.42h.05c.16-.47.29-.96.45-1.42l1.23-3.47h1.64v7.41h-1.35v-3.09c0-.7.11-1.73.19-2.43h-.05l-.6,1.74-1.14,3.11h-.85l-1.15-3.11-.59-1.74h-.04c.07.7.19,1.73.19,2.43v3.09h-1.33v-7.41Z"/>
      <path class="cls-4" d="m863.51,809.7c0-1.86,1.29-2.94,2.69-2.94s2.69,1.08,2.69,2.94-1.29,2.94-2.69,2.94-2.69-1.08-2.69-2.94Zm3.88,0c0-1.05-.43-1.74-1.19-1.74s-1.19.69-1.19,1.74.43,1.74,1.19,1.74,1.19-.68,1.19-1.74Z"/>
      <path class="cls-4" d="m869.8,809.7c0-1.82,1.14-2.94,2.35-2.94.63,0,1.02.24,1.42.61l-.05-.88v-1.97h1.46v7.98h-1.19l-.11-.58h-.04c-.41.4-.97.72-1.55.72-1.39,0-2.29-1.1-2.29-2.94Zm3.72,1.15v-2.46c-.34-.31-.7-.42-1.05-.42-.63,0-1.16.6-1.16,1.72s.42,1.74,1.16,1.74c.39,0,.72-.16,1.05-.58Z"/>
      <path class="cls-4" d="m876.5,810.4v-3.5h1.47v3.31c0,.86.24,1.17.78,1.17.46,0,.76-.2,1.14-.7v-3.78h1.47v5.6h-1.2l-.11-.8h-.04c-.48.57-1.02.94-1.78.94-1.21,0-1.73-.84-1.73-2.24Z"/>
      <path class="cls-4" d="m882.93,810.93v-6.41h1.47v6.47c0,.34.15.45.29.45.06,0,.1,0,.2-.02l.18,1.09c-.17.07-.41.13-.76.13-1.02,0-1.38-.67-1.38-1.71Z"/>
      <path class="cls-4" d="m885.73,809.7c0-1.81,1.28-2.94,2.61-2.94,1.54,0,2.34,1.13,2.34,2.67,0,.28-.03.55-.07.68h-3.45c.12.92.72,1.4,1.55,1.4.46,0,.86-.14,1.26-.39l.5.9c-.55.38-1.26.62-1.95.62-1.57,0-2.79-1.09-2.79-2.94Zm3.69-.57c0-.75-.34-1.23-1.06-1.23-.59,0-1.11.42-1.22,1.23h2.28Z"/>
    </g>
    <g>
      <path class="cls-4" d="m996.62,805.09h1.51l2.15,3.95.74,1.6h.05c-.07-.77-.19-1.75-.19-2.59v-2.96h1.4v7.41h-1.5l-2.14-3.96-.75-1.59h-.05c.07.8.18,1.73.18,2.58v2.97h-1.4v-7.41Z"/>
      <path class="cls-4" d="m1003.64,809.7c0-1.86,1.29-2.94,2.69-2.94s2.69,1.08,2.69,2.94-1.29,2.94-2.69,2.94-2.69-1.08-2.69-2.94Zm3.88,0c0-1.05-.43-1.74-1.19-1.74s-1.19.69-1.19,1.74.43,1.74,1.19,1.74,1.19-.68,1.19-1.74Z"/>
      <path class="cls-4" d="m1009.93,809.7c0-1.82,1.14-2.94,2.35-2.94.63,0,1.02.24,1.42.61l-.05-.88v-1.97h1.46v7.98h-1.19l-.11-.58h-.04c-.41.4-.97.72-1.55.72-1.39,0-2.29-1.1-2.29-2.94Zm3.72,1.15v-2.46c-.34-.31-.7-.42-1.05-.42-.63,0-1.16.6-1.16,1.72s.42,1.74,1.16,1.74c.39,0,.72-.16,1.05-.58Z"/>
      <path class="cls-4" d="m1016.34,809.7c0-1.81,1.28-2.94,2.61-2.94,1.54,0,2.34,1.13,2.34,2.67,0,.28-.03.55-.07.68h-3.45c.12.92.72,1.4,1.55,1.4.46,0,.86-.14,1.26-.39l.5.9c-.55.38-1.26.62-1.95.62-1.57,0-2.79-1.09-2.79-2.94Zm3.69-.57c0-.75-.34-1.23-1.06-1.23-.59,0-1.11.42-1.22,1.23h2.28Z"/>
    </g>
    <g>
      <path class="cls-4" d="m1372.74,134.01l.75,1.01c-.54.29-.77.68-.77,1.1,0,.65.35.99,1.37.99h4.9v1.48h-5.02c-1.39,0-2.53-.7-2.53-2.29,0-1.08.44-1.8,1.3-2.29Z"/>
      <path class="cls-4" d="m1372.52,139.88l1.02.85c-.49.53-.82,1.23-.82,1.88,0,.77.33,1.18.85,1.18.55,0,.72-.45,1-1.11l.42-.99c.31-.75.91-1.5,1.99-1.5,1.21,0,2.14,1.06,2.14,2.56,0,.86-.34,1.72-.95,2.32l-.93-.75c.39-.47.61-.96.61-1.57,0-.65-.29-1.06-.78-1.06-.53,0-.72.52-.97,1.15l-.41.97c-.37.9-.94,1.49-2.01,1.49-1.21,0-2.24-1.01-2.24-2.72,0-.99.39-1.98,1.08-2.7Z"/>
      <path class="cls-4" d="m1375.4,147.92l3.59-1.95v1.64l-1.53.74c-.35.18-.71.33-1.17.55v.05c.46.18.82.33,1.17.49l1.53.7v1.56l-3.66-1.95-3.75,2.08v-1.64l1.64-.83c.38-.19.77-.36,1.22-.58v-.04c-.45-.18-.84-.36-1.22-.54l-1.64-.79v-1.57l3.82,2.08Z"/>
    </g>
    <g>
      <path class="cls-4" d="m1374.91,275.84h4.08v1.48h-4.21c-1.54,0-2.06.54-2.06,1.4s.52,1.44,2.06,1.44h4.21v1.42h-4.08c-2.46,0-3.47-1.05-3.47-2.86s1.01-2.88,3.47-2.88Z"/>
      <path class="cls-4" d="m1378.99,283.36v1.48h-7.41v-1.48h7.41Z"/>
      <path class="cls-4" d="m1379.64,288.37v.97l-9.88-2.48v-.98l9.88,2.49Z"/>
      <path class="cls-4" d="m1374.91,290.49h4.08v1.48h-4.21c-1.54,0-2.06.54-2.06,1.4s.52,1.44,2.06,1.44h4.21v1.42h-4.08c-2.46,0-3.47-1.05-3.47-2.86s1.01-2.88,3.47-2.88Z"/>
      <path class="cls-4" d="m1375.4,299.32l3.59-1.95v1.64l-1.53.74c-.35.18-.71.33-1.17.55v.05c.46.18.82.33,1.17.49l1.53.7v1.56l-3.66-1.95-3.75,2.08v-1.64l1.64-.83c.38-.19.77-.36,1.22-.58v-.04c-.45-.18-.84-.36-1.22-.54l-1.64-.79v-1.57l3.82,2.08Z"/>
    </g>
    <g>
      <rect class="cls-2" x="829.39" y="345.07" width="225.87" height="14.08"/>
      <g>
        <rect class="cls-2" x="911.68" y="409.16" width="221.36" height="4.76" transform="translate(610.82 1433.9) rotate(-90)"/>
        <rect class="cls-2" x="850.77" y="383.63" width="129.24" height=".75"/>
        <rect class="cls-2" x="979.63" y="394.41" width=".75" height="129.24"/>
        <rect class="cls-2" x="838.73" y="469.34" width="103.55" height="4.24" transform="translate(-72.55 767.77) rotate(-45)"/>
      </g>
    </g>
    <g>
      <path class="cls-4" d="m1378.99,420.94v2.03c0,2.26-1.18,3.66-3.68,3.66s-3.73-1.4-3.73-3.58v-2.11h7.41Zm-6.22,1.94c0,1.38.74,2.24,2.54,2.24s2.49-.86,2.49-2.24v-.46h-5.03v.46Z"/>
      <path class="cls-4" d="m1377.18,427.96v1.47h-5.6v-1.47h5.6Zm1.71-.12c.48,0,.8.35.8.86s-.32.85-.8.85-.81-.35-.81-.85.32-.86.81-.86Z"/>
      <path class="cls-4" d="m1373.1,430.72c1.2,0,1.83.97,2.07,3.23.55-.03.97-.27.97-.96,0-.52-.23-1.02-.53-1.54l.97-.53c.41.66.74,1.46.74,2.34,0,1.42-.85,2.15-2.47,2.15h-3.27v-1.2l.6-.1v-.04c-.42-.49-.74-1.05-.74-1.69,0-1,.71-1.66,1.66-1.66Zm.04,3.23h1.13c-.17-1.37-.55-1.83-1.05-1.83-.44,0-.63.31-.63.74s.2.73.55,1.09Z"/>
      <path class="cls-4" d="m1373.15,436.91h6.41v1.47h-6.47c-.34,0-.45.15-.45.29,0,.06,0,.1.02.2l-1.09.18c-.07-.17-.13-.41-.13-.76,0-1.02.67-1.38,1.71-1.38Z"/>
      <path class="cls-4" d="m1374.38,439.71c1.86,0,2.94,1.29,2.94,2.69s-1.08,2.69-2.94,2.69-2.94-1.29-2.94-2.69,1.08-2.69,2.94-2.69Zm0,3.88c1.05,0,1.74-.43,1.74-1.19s-.69-1.19-1.74-1.19-1.74.43-1.74,1.19.68,1.19,1.74,1.19Z"/>
      <path class="cls-4" d="m1370.59,445.95c.47,0,.87.29,1.16.8h.05c.19-.29.48-.51.94-.51.42,0,.81.29,1.05.63h.04c.28-.39.81-.75,1.47-.75,1.31,0,2.02,1.07,2.02,2.26,0,.31-.06.61-.14.84v2.02h-1.08v-.95c-.19.14-.5.25-.85.25-1.26,0-1.9-.96-1.9-2.16,0-.22.05-.48.13-.72-.13-.15-.25-.24-.48-.24-.3,0-.46.22-.46.88v.95c0,1.35-.42,2.09-1.4,2.09-1.13,0-1.99-1.18-1.99-3.05,0-1.32.45-2.34,1.44-2.34Zm.3,3.98c.4,0,.5-.33.5-.93v-.68c0-.34.03-.58.08-.78-.2-.25-.42-.36-.65-.36-.47,0-.74.52-.74,1.33s.37,1.42.81,1.42Zm4.41-.67c.65,0,1.02-.38,1.02-.88s-.37-.88-1.02-.88-1.04.39-1.04.88.37.88,1.04.88Z"/>
      <path class="cls-4" d="m1373.15,456.01h6.41v1.46h-6.47c-.34,0-.45.16-.45.29,0,.06,0,.11.02.2l-1.09.18c-.07-.16-.13-.4-.13-.75,0-1.03.67-1.38,1.71-1.38Zm2.87-3.47v-.75h1.09l.06.75h.46c1.17,0,2.07.54,2.07,1.95,0,.43-.1.81-.19,1.06l-1.09-.27c.08-.19.12-.41.12-.59,0-.44-.26-.68-.88-.68h-.48v1.05h-1.16v-1.05h-4.44v-1.47h4.44Z"/>
      <path class="cls-4" d="m1374.38,458.81c1.86,0,2.94,1.29,2.94,2.69s-1.08,2.69-2.94,2.69-2.94-1.29-2.94-2.69,1.08-2.69,2.94-2.69Zm0,3.88c1.05,0,1.74-.43,1.74-1.19s-.69-1.19-1.74-1.19-1.74.43-1.74,1.19.68,1.19,1.74,1.19Z"/>
      <path class="cls-4" d="m1377.18,464.9v1.47l-2.76.61c-.55.11-1.08.18-1.64.28v.04c.56.11,1.1.21,1.64.35l2.76.68v1.3l-2.76.7c-.55.13-1.08.23-1.64.35v.05c.56.1,1.09.18,1.64.28l2.76.61v1.36l-5.6-1.38v-1.73l2.44-.59c.53-.12,1.04-.21,1.63-.32v-.05c-.59-.11-1.11-.19-1.63-.31l-2.44-.57v-1.68l5.6-1.45Z"/>
    </g>
    <g>
      <path d="m1366.74,566.84l1.84,1.53c-.88.95-1.48,2.21-1.48,3.39,0,1.39.59,2.12,1.53,2.12.99,0,1.3-.81,1.8-2l.76-1.78c.56-1.35,1.64-2.7,3.58-2.7,2.18,0,3.85,1.91,3.85,4.61,0,1.55-.61,3.1-1.71,4.18l-1.67-1.35c.7-.85,1.1-1.73,1.1-2.83,0-1.17-.52-1.91-1.4-1.91-.95,0-1.3.94-1.75,2.07l-.74,1.75c-.67,1.62-1.69,2.68-3.62,2.68-2.18,0-4.03-1.82-4.03-4.9,0-1.78.7-3.56,1.94-4.86Z"/>
      <path d="m1371.66,578.29c4.39,0,6.97,2.83,6.97,6.19,0,1.69-.81,3.04-1.71,3.91l-1.69-1.39c.65-.68,1.12-1.46,1.12-2.47,0-2.02-1.73-3.53-4.59-3.53s-4.65,1.37-4.65,3.48c0,1.15.54,2.03,1.31,2.75l-1.66,1.4c-1.28-1.1-1.96-2.52-1.96-4.25,0-3.37,2.41-6.1,6.86-6.1Z"/>
      <path d="m1378.39,590.78v4.65c0,2.79-.99,5.01-4.05,5.01-2,0-3.24-1.01-3.83-2.54l-5.46,3.12v-2.97l5.04-2.74v-1.85h-5.04v-2.66h13.34Zm-6.19,4.39c0,1.71.72,2.67,2.14,2.67s1.93-.95,1.93-2.67v-1.73h-4.07v1.73Z"/>
      <path d="m1371.77,602.39c4.34,0,6.86,2.43,6.86,5.96s-2.54,5.96-6.86,5.96-6.97-2.43-6.97-5.96,2.65-5.96,6.97-5.96Zm0,9.2c2.86,0,4.57-1.26,4.57-3.24s-1.71-3.24-4.57-3.24-4.66,1.26-4.66,3.24,1.82,3.24,4.66,3.24Z"/>
      <path d="m1378.39,616.92v2.66h-11.11v5.42h-2.23v-8.08h13.34Z"/>
      <path d="m1378.39,627.32v2.66h-11.11v5.42h-2.23v-8.08h13.34Z"/>
      <path d="m1378.39,649.99v3.65c0,4.07-2.12,6.59-6.63,6.59s-6.72-2.52-6.72-6.45v-3.8h13.34Zm-11.2,3.49c0,2.48,1.33,4.03,4.57,4.03s4.48-1.55,4.48-4.03v-.83h-9.06v.83Z"/>
      <path d="m1371.77,662.17c4.34,0,6.86,2.43,6.86,5.96s-2.54,5.96-6.86,5.96-6.97-2.43-6.97-5.96,2.65-5.96,6.97-5.96Zm0,9.2c2.86,0,4.57-1.26,4.57-3.24s-1.71-3.24-4.57-3.24-4.66,1.26-4.66,3.24,1.82,3.24,4.66,3.24Z"/>
      <path d="m1378.39,675.4v2.7l-6.52,1.06c-1.4.2-2.81.41-4.25.61v.07c1.44.27,2.86.56,4.25.85l6.52,1.55v2.29l-6.52,1.53c-1.37.29-2.81.56-4.25.85v.09c1.44.2,2.86.4,4.25.59l6.52,1.06v2.52l-13.34-2.47v-3.31l6.59-1.49c1.04-.22,2.07-.41,3.1-.58v-.07c-1.03-.18-2.05-.36-3.1-.58l-6.59-1.46v-3.26l13.34-2.56Z"/>
      <path d="m1378.39,693.17v2.72l-7.11,3.87-2.88,1.33v.09c1.39-.13,3.15-.34,4.66-.34h5.33v2.52h-13.34v-2.7l7.13-3.85,2.86-1.35v-.09c-1.44.13-3.12.32-4.65.32h-5.35v-2.52h13.34Z"/>
    </g>
    <g>
      <rect class="cls-2" x="1100.13" y="374.44" width="5.38" height="5.38"/>
      <rect class="cls-2" x="1113.56" y="374.44" width="5.38" height="5.38"/>
      <rect class="cls-2" x="1126.99" y="374.44" width="5.38" height="5.38"/>
    </g>
    <g>
      <rect class="cls-2" x="530.03" y="373" width="5.4" height="5.4"/>
      <rect class="cls-2" x="543.49" y="373" width="5.4" height="5.4"/>
      <rect class="cls-2" x="556.95" y="373" width="5.4" height="5.4"/>
    </g>
    <g>
      <rect class="cls-2" x="52.22" y="752.66" width="8.92" height="8.92"/>
      <rect class="cls-2" x="74.46" y="752.66" width="8.92" height="8.92"/>
      <rect class="cls-2" x="96.71" y="752.66" width="8.92" height="8.92"/>
    </g>
    <polygon points="1371.58 760.96 1362.83 752.48 1363.52 751.76 1371.58 759.57 1379.64 751.76 1380.34 752.48 1371.58 760.96"/>
    <rect class="cls-2" x="180.44" y="806.74" width="307.6" height="5.76"/>
    <rect class="cls-2" x="1163.22" y="105" width="277.92" height="5.76"/>
    <g>
      <rect class="cls-2" x="118" y="528.5" width="27.28" height="139.68"/>
      <rect class="cls-2" x="172.57" y="580.8" width="27.28" height="139.68"/>
      <rect class="cls-2" x="18.29" y="705.91" width="202.19" height="3.42"/>
    </g>
    <rect class="cls-2" x="153.55" y="474.38" width="14.64" height="14.64"/>
    <rect class="cls-2" x="487.12" y="631.56" width="16.44" height="16.44"/>
    <rect class="cls-2" x="1018.39" y="578.31" width="7.94" height="7.94"/>
    <g>
      <rect class="cls-2" x="388.78" y="173.59" width="180.95" height="3.89" transform="translate(303.73 654.79) rotate(-90)"/>
      <rect class="cls-2" x="413.85" y="152.8" width="105.65" height=".45"/>
      <rect class="cls-2" x="484.54" y="134.66" width="84.65" height="20.1" transform="translate(1053.73 289.42) rotate(-180)"/>
    </g>
    <rect class="cls-2" x="1245.5" y="188.47" width="58.73" height="2.4" transform="translate(239.28 957.01) rotate(-45)"/>
    <rect class="cls-2" x="52.22" y="809.62" width="307.6" height="2.88"/>
    <rect class="cls-2" x="618.03" y="579.39" width="307.6" height="5.76"/>
    <rect class="cls-2" x="489.8" y="582.28" width="307.6" height="2.88"/>
    <rect class="cls-2" x="4.73" y="435.85" width="696.72" height="6.4"/>
    <g>
      <path class="cls-3" d="m137.14,329.92c0,4.26-1.1,7.48-3.29,9.66-2.2,2.18-5.36,3.28-9.48,3.28-2.29,0-4.41-.17-6.39-.5v-24.2c1.99-.34,4.12-.5,6.39-.5,4.1,0,7.25,1.06,9.46,3.18,2.21,2.12,3.31,5.15,3.31,9.09Zm-3.53,0c0-3.05-.78-5.35-2.35-6.91-1.57-1.56-3.87-2.34-6.89-2.34-1.01,0-1.9.08-2.69.24v18.69c.78.16,1.68.24,2.69.24,3.14,0,5.46-.81,6.97-2.44,1.51-1.62,2.27-4.12,2.27-7.48Z"/>
      <path class="cls-3" d="m147.52,321.02v6.99h10.42v2.89h-10.42v8.6h11.09v3.03h-14.79v-24.53h14.79v3.03h-11.09Z"/>
      <path class="cls-3" d="m173.54,320.62c-1.37,0-2.42.31-3.16.92s-1.11,1.45-1.11,2.5c0,1.86,1.37,3.2,4.1,4.03,2.94.83,5.01,1.86,6.23,3.09,1.22,1.23,1.83,2.83,1.83,4.81,0,2.22-.71,3.92-2.13,5.11-1.42,1.19-3.46,1.78-6.1,1.78-2.78,0-5.3-.67-7.56-2.02l1.01-3.02c2.02,1.34,4.2,2.02,6.55,2.02,1.46,0,2.58-.34,3.36-1.01.78-.67,1.18-1.62,1.18-2.86,0-1.16-.31-2.08-.94-2.76-.63-.67-1.77-1.27-3.43-1.78-2.67-.78-4.62-1.78-5.86-2.99-1.24-1.21-1.87-2.68-1.87-4.4,0-1.93.7-3.47,2.1-4.64,1.4-1.16,3.33-1.75,5.8-1.75s4.98.5,7.23,1.51l-.84,2.86c-1.95-.94-4.08-1.41-6.39-1.41Z"/>
      <path class="cls-3" d="m189.63,342.53v-24.53h4.03v24.53h-4.03Z"/>
      <path class="cls-3" d="m219.18,330.9h-7.73v-2.89h11.26v13.01c-2.49,1.23-5.23,1.85-8.23,1.85-4.03,0-7.25-1.14-9.66-3.41-2.41-2.27-3.61-5.34-3.61-9.19s1.16-6.92,3.48-9.19c2.32-2.27,5.47-3.41,9.46-3.41,2.87,0,5.41.68,7.63,2.05l-1.18,2.69c-1.97-1.19-4.01-1.78-6.12-1.78-2.98,0-5.31.87-6.99,2.62-1.68,1.75-2.52,4.09-2.52,7.02s.89,5.31,2.66,7.04c1.77,1.74,4.17,2.6,7.19,2.6,1.61,0,3.07-.28,4.37-.84v-8.17Z"/>
      <path class="cls-3" d="m230.57,342.53v-24.53h3.63l11.49,18.32h.07v-18.32h3.63v24.53h-3.63l-11.49-18.32h-.07v18.32h-3.63Z"/>
      <path class="cls-3" d="m286.73,335.47c0,4.93-3.25,7.39-9.75,7.39-2.4,0-4.64-.17-6.72-.5v-24.2c1.99-.34,4.12-.5,6.39-.5,6.05,0,9.07,2.02,9.07,6.05,0,1.34-.46,2.53-1.38,3.55-.92,1.02-2.14,1.67-3.66,1.97v.07c1.88.29,3.36.99,4.44,2.08,1.08,1.1,1.61,2.47,1.61,4.1Zm-12.77-7.46h1.34c2.46,0,4.24-.31,5.33-.94,1.09-.63,1.63-1.58,1.63-2.86s-.44-2.14-1.31-2.72c-.87-.58-2.31-.87-4.3-.87-1.01,0-1.9.08-2.69.24v7.16Zm0,2.89v8.77c.87.16,1.88.24,3.02.24,2.11,0,3.65-.39,4.64-1.18.99-.78,1.48-1.98,1.48-3.6,0-1.46-.59-2.53-1.78-3.21-1.19-.68-3.19-1.02-6.02-1.02h-1.34Z"/>
      <path class="cls-3" d="m297.12,321.02v6.99h10.42v2.89h-10.42v8.6h11.09v3.03h-14.79v-24.53h14.79v3.03h-11.09Z"/>
      <path class="cls-3" d="m318.56,317.99l6.29,11.43h.07l6.29-11.43h4.2l-8.64,14.45v10.08h-3.9v-10.08l-8.64-14.45h4.34Z"/>
      <path class="cls-3" d="m343.53,321.09c2.2-2.29,5.13-3.43,8.81-3.43s6.61,1.14,8.81,3.43c2.2,2.29,3.29,5.34,3.29,9.17s-1.1,6.89-3.29,9.17c-2.2,2.29-5.13,3.43-8.81,3.43s-6.61-1.14-8.81-3.43c-2.2-2.29-3.29-5.34-3.29-9.17s1.1-6.89,3.29-9.17Zm2.76,16.18c1.52,1.71,3.54,2.57,6.05,2.57s4.53-.86,6.05-2.57c1.52-1.71,2.29-4.05,2.29-7.01s-.76-5.29-2.29-7.01c-1.52-1.71-3.54-2.57-6.05-2.57s-4.53.86-6.05,2.57c-1.52,1.71-2.29,4.05-2.29,7.01s.76,5.29,2.29,7.01Z"/>
      <path class="cls-3" d="m371.12,342.53v-24.53h3.63l11.49,18.32h.07v-18.32h3.63v24.53h-3.63l-11.49-18.32h-.07v18.32h-3.63Z"/>
      <path class="cls-3" d="m417.3,329.92c0,4.26-1.1,7.48-3.29,9.66-2.2,2.18-5.36,3.28-9.48,3.28-2.29,0-4.41-.17-6.39-.5v-24.2c1.99-.34,4.12-.5,6.39-.5,4.1,0,7.25,1.06,9.46,3.18,2.21,2.12,3.31,5.15,3.31,9.09Zm-3.53,0c0-3.05-.78-5.35-2.35-6.91-1.57-1.56-3.87-2.34-6.89-2.34-1.01,0-1.9.08-2.69.24v18.69c.78.16,1.68.24,2.69.24,3.14,0,5.46-.81,6.97-2.44,1.51-1.62,2.27-4.12,2.27-7.48Z"/>
      <path class="cls-3" d="m453.13,335.47c0,4.93-3.25,7.39-9.75,7.39-2.4,0-4.64-.17-6.72-.5v-24.2c1.99-.34,4.12-.5,6.39-.5,6.05,0,9.07,2.02,9.07,6.05,0,1.34-.46,2.53-1.38,3.55s-2.14,1.67-3.66,1.97v.07c1.88.29,3.36.99,4.44,2.08,1.08,1.1,1.61,2.47,1.61,4.1Zm-12.77-7.46h1.34c2.46,0,4.24-.31,5.33-.94,1.09-.63,1.63-1.58,1.63-2.86s-.44-2.14-1.31-2.72c-.87-.58-2.31-.87-4.3-.87-1.01,0-1.9.08-2.69.24v7.16Zm0,2.89v8.77c.87.16,1.88.24,3.02.24,2.11,0,3.65-.39,4.64-1.18.99-.78,1.48-1.98,1.48-3.6,0-1.46-.59-2.53-1.78-3.21-1.19-.68-3.19-1.02-6.02-1.02h-1.34Z"/>
      <path class="cls-3" d="m461.6,321.09c2.2-2.29,5.13-3.43,8.81-3.43s6.61,1.14,8.81,3.43c2.2,2.29,3.29,5.34,3.29,9.17s-1.1,6.89-3.29,9.17c-2.2,2.29-5.13,3.43-8.81,3.43s-6.61-1.14-8.81-3.43c-2.2-2.29-3.29-5.34-3.29-9.17s1.1-6.89,3.29-9.17Zm2.76,16.18c1.52,1.71,3.54,2.57,6.05,2.57s4.53-.86,6.05-2.57c1.52-1.71,2.29-4.05,2.29-7.01s-.76-5.29-2.29-7.01c-1.52-1.71-3.54-2.57-6.05-2.57s-4.53.86-6.05,2.57c-1.52,1.71-2.29,4.05-2.29,7.01s.76,5.29,2.29,7.01Z"/>
      <path class="cls-3" d="m492.62,317.99v14.79c0,4.66,1.85,6.99,5.55,6.99s5.55-2.33,5.55-6.99v-14.79h3.63v14.62c0,3.38-.8,5.94-2.39,7.66-1.59,1.73-3.88,2.59-6.86,2.59s-5.27-.86-6.86-2.59c-1.59-1.73-2.39-4.28-2.39-7.66v-14.62h3.76Z"/>
      <path class="cls-3" d="m515.2,342.53v-24.53h3.63l11.49,18.32h.07v-18.32h3.63v24.53h-3.63l-11.49-18.32h-.07v18.32h-3.63Z"/>
      <path class="cls-3" d="m561.38,329.92c0,4.26-1.1,7.48-3.29,9.66-2.2,2.18-5.36,3.28-9.48,3.28-2.29,0-4.41-.17-6.39-.5v-24.2c1.99-.34,4.12-.5,6.39-.5,4.1,0,7.25,1.06,9.46,3.18,2.21,2.12,3.31,5.15,3.31,9.09Zm-3.53,0c0-3.05-.78-5.35-2.35-6.91-1.57-1.56-3.87-2.34-6.89-2.34-1.01,0-1.9.08-2.69.24v18.69c.78.16,1.68.24,2.69.24,3.14,0,5.46-.81,6.97-2.44,1.51-1.62,2.27-4.12,2.27-7.48Z"/>
      <path class="cls-3" d="m566.39,342.53l8.74-24.53h4.03l8.74,24.53h-3.97l-2.12-6.52h-9.48l-2.12,6.52h-3.83Zm6.86-9.41h7.66l-3.8-11.76h-.07l-3.8,11.76Z"/>
      <path class="cls-3" d="m598.11,332.45v10.08h-3.7v-24.37c2.11-.34,4.35-.5,6.72-.5,3.23,0,5.66.59,7.29,1.78,1.63,1.19,2.45,2.83,2.45,4.94,0,1.7-.44,3.16-1.31,4.37-.87,1.21-2.06,2.04-3.56,2.49v.07c.96.58,1.86,1.92,2.69,4l2.86,7.23h-3.83l-2.79-7.23c-.47-1.21-.99-1.99-1.56-2.34-.57-.35-1.65-.52-3.24-.52h-2.02Zm0-2.89h2.02c4.75,0,7.13-1.61,7.13-4.84,0-1.37-.51-2.39-1.53-3.07-1.02-.68-2.66-1.02-4.92-1.02-1.01,0-1.9.08-2.69.24v8.7Z"/>
      <path class="cls-3" d="m619.25,342.53v-24.53h4.03v24.53h-4.03Z"/>
      <path class="cls-3" d="m636.02,321.02v6.99h10.42v2.89h-10.42v8.6h11.09v3.03h-14.79v-24.53h14.79v3.03h-11.09Z"/>
      <path class="cls-3" d="m662.04,320.62c-1.37,0-2.42.31-3.16.92s-1.11,1.45-1.11,2.5c0,1.86,1.37,3.2,4.1,4.03,2.94.83,5.01,1.86,6.23,3.09,1.22,1.23,1.83,2.83,1.83,4.81,0,2.22-.71,3.92-2.13,5.11-1.42,1.19-3.46,1.78-6.1,1.78-2.78,0-5.3-.67-7.56-2.02l1.01-3.02c2.02,1.34,4.2,2.02,6.55,2.02,1.46,0,2.58-.34,3.36-1.01.78-.67,1.18-1.62,1.18-2.86,0-1.16-.31-2.08-.94-2.76-.63-.67-1.77-1.27-3.43-1.78-2.67-.78-4.62-1.78-5.86-2.99-1.24-1.21-1.87-2.68-1.87-4.4,0-1.93.7-3.47,2.1-4.64,1.4-1.16,3.33-1.75,5.8-1.75s4.98.5,7.23,1.51l-.84,2.86c-1.95-.94-4.08-1.41-6.39-1.41Z"/>
    </g>
    <g>
      <path class="cls-3" d="m132.93,379.5h-11.86v9.41h11.19v1.41h-11.19v12.27h-1.68v-24.53h13.54v1.45Z"/>
      <path class="cls-3" d="m150.27,401.45c4.66,0,6.99-2.72,6.99-8.17v-15.23h1.68v15.19c0,3.14-.75,5.54-2.25,7.19-1.5,1.66-3.65,2.49-6.45,2.49s-4.95-.82-6.44-2.47c-1.49-1.65-2.23-4.05-2.23-7.21v-15.19h1.71v15.23c0,5.44,2.33,8.17,6.99,8.17Z"/>
      <path class="cls-3" d="m169.8,378.06v23.06h12.7v1.48h-14.45v-24.53h1.75Z"/>
      <path class="cls-3" d="m192.88,378.06v23.06h12.7v1.48h-14.45v-24.53h1.75Z"/>
      <path class="cls-3" d="m220.71,379.17c-1.73,0-3.06.38-4.02,1.13-.95.75-1.43,1.8-1.43,3.14,0,2.47,1.83,4.26,5.48,5.38,2.6.78,4.47,1.77,5.61,2.96,1.14,1.19,1.71,2.72,1.71,4.6,0,2.11-.64,3.73-1.93,4.86-1.29,1.13-3.13,1.7-5.53,1.7-2.73,0-5.14-.75-7.23-2.25l.61-1.34c1.93,1.43,4.13,2.15,6.62,2.15,1.88,0,3.32-.44,4.3-1.31.99-.87,1.48-2.14,1.48-3.8,0-1.5-.44-2.72-1.33-3.65-.89-.93-2.37-1.72-4.45-2.37-4.66-1.39-6.99-3.7-6.99-6.92,0-1.73.62-3.11,1.87-4.15s2.99-1.56,5.23-1.56c2.51,0,4.81.54,6.89,1.61l-.47,1.34c-1.88-1.01-4.02-1.51-6.42-1.51Z"/>
      <path class="cls-3" d="m235.84,378.06h17.71v1.48h-8.03v23.06h-1.68v-23.06h-8v-1.48Z"/>
      <path class="cls-3" d="m260.47,402.59l9.17-24.53h2.02l9.21,24.53h-1.81l-2.82-7.76h-11.19l-2.82,7.76h-1.75Zm5.11-9.17h10.15l-5.04-13.88h-.07l-5.04,13.88Z"/>
      <path class="cls-3" d="m299.22,379.17c-3.18,0-5.71,1.01-7.58,3.03-1.87,2.02-2.81,4.73-2.81,8.13s.95,6.09,2.86,8.12c1.9,2.03,4.41,3.04,7.53,3.04,2.44,0,4.69-.67,6.76-2.02l.64,1.31c-2.13,1.43-4.63,2.15-7.49,2.15-3.63,0-6.54-1.14-8.72-3.43-2.18-2.29-3.28-5.34-3.28-9.17s1.08-6.95,3.24-9.21c2.16-2.26,5.08-3.39,8.76-3.39,2.87,0,5.37.72,7.49,2.15l-.64,1.31c-2.02-1.34-4.27-2.02-6.76-2.02Z"/>
      <path class="cls-3" d="m317.1,378.06v11.12h.07l12.13-11.12h2.15l-12.91,11.76,13.24,12.77h-2.15l-12.47-12.13h-.07v12.13h-1.68v-24.53h1.68Z"/>
      <path class="cls-3" d="m370.87,389.99c0,4.21-1.1,7.42-3.29,9.63-2.2,2.21-5.36,3.31-9.48,3.31-1.99,0-3.82-.18-5.48-.54v-24.13c1.7-.36,3.53-.54,5.48-.54,4.12,0,7.28,1.06,9.48,3.18,2.2,2.12,3.29,5.15,3.29,9.09Zm-12.77-10.82c-1.19,0-2.45.13-3.8.4v21.51c1.34.27,2.61.4,3.8.4,3.65,0,6.42-.98,8.32-2.92,1.89-1.95,2.84-4.81,2.84-8.57,0-3.54-.95-6.23-2.84-8.07-1.89-1.84-4.67-2.76-8.32-2.76Z"/>
      <path class="cls-3" d="m380.52,379.5v9.07h11.53v1.41h-11.53v11.16h12.2v1.45h-13.88v-24.53h13.88v1.45h-12.2Z"/>
      <path class="cls-3" d="m408.35,379.17c-1.73,0-3.06.38-4.02,1.13-.95.75-1.43,1.8-1.43,3.14,0,2.47,1.83,4.26,5.48,5.38,2.6.78,4.47,1.77,5.61,2.96,1.14,1.19,1.71,2.72,1.71,4.6,0,2.11-.64,3.73-1.93,4.86-1.29,1.13-3.13,1.7-5.53,1.7-2.73,0-5.14-.75-7.23-2.25l.61-1.34c1.93,1.43,4.13,2.15,6.62,2.15,1.88,0,3.32-.44,4.3-1.31.99-.87,1.48-2.14,1.48-3.8,0-1.5-.44-2.72-1.33-3.65-.89-.93-2.37-1.72-4.45-2.37-4.66-1.39-6.99-3.7-6.99-6.92,0-1.73.62-3.11,1.87-4.15s2.99-1.56,5.23-1.56c2.51,0,4.81.54,6.89,1.61l-.47,1.34c-1.88-1.01-4.02-1.51-6.42-1.51Z"/>
      <path class="cls-3" d="m425.49,402.59v-24.53h1.78v24.53h-1.78Z"/>
      <path class="cls-3" d="m448.91,379.17c-3.36,0-6,1-7.91,2.99s-2.87,4.72-2.87,8.17.97,6.15,2.92,8.15c1.95,2.01,4.6,3.01,7.97,3.01,2.49,0,4.69-.44,6.62-1.31v-10.18h-9.31v-1.41h10.92v12.54c-2.44,1.21-5.22,1.81-8.33,1.81-3.79,0-6.82-1.14-9.09-3.43-2.27-2.29-3.41-5.34-3.41-9.17s1.11-6.89,3.34-9.17c2.23-2.29,5.24-3.43,9.02-3.43,2.89,0,5.42.67,7.6,2.02l-.64,1.28c-2.04-1.23-4.31-1.85-6.82-1.85Z"/>
      <path class="cls-3" d="m466.39,402.59v-24.53h1.92l14.05,21.98h.07v-21.98h1.68v24.53h-1.95l-14.05-21.98h-.07v21.98h-1.65Z"/>
      <path class="cls-3" d="m517.21,379.17c-3.18,0-5.71,1.01-7.58,3.03-1.87,2.02-2.81,4.73-2.81,8.13s.95,6.09,2.86,8.12c1.9,2.03,4.41,3.04,7.53,3.04,2.44,0,4.69-.67,6.76-2.02l.64,1.31c-2.13,1.43-4.63,2.15-7.49,2.15-3.63,0-6.54-1.14-8.72-3.43-2.18-2.29-3.28-5.34-3.28-9.17s1.08-6.95,3.24-9.21c2.16-2.26,5.08-3.39,8.76-3.39,2.87,0,5.37.72,7.49,2.15l-.64,1.31c-2.02-1.34-4.27-2.02-6.76-2.02Z"/>
      <path class="cls-3" d="m552.38,399.47c-2.18,2.31-5.06,3.46-8.62,3.46s-6.43-1.15-8.6-3.46-3.26-5.35-3.26-9.14,1.09-6.83,3.26-9.14c2.17-2.31,5.04-3.46,8.6-3.46s6.44,1.15,8.62,3.46c2.18,2.31,3.28,5.36,3.28,9.14s-1.09,6.83-3.28,9.14Zm-15.98-1.04c1.86,2.04,4.31,3.06,7.36,3.06s5.51-1.02,7.38-3.06c1.87-2.04,2.81-4.74,2.81-8.1s-.94-6.06-2.81-8.1c-1.87-2.04-4.33-3.06-7.38-3.06s-5.5,1.02-7.36,3.06c-1.86,2.04-2.79,4.74-2.79,8.1s.93,6.06,2.79,8.1Z"/>
      <path class="cls-3" d="m581.83,389.99c0,4.21-1.1,7.42-3.29,9.63-2.2,2.21-5.36,3.31-9.48,3.31-1.99,0-3.82-.18-5.48-.54v-24.13c1.7-.36,3.53-.54,5.48-.54,4.12,0,7.28,1.06,9.48,3.18,2.2,2.12,3.29,5.15,3.29,9.09Zm-12.77-10.82c-1.19,0-2.45.13-3.8.4v21.51c1.34.27,2.61.4,3.8.4,3.65,0,6.42-.98,8.32-2.92,1.89-1.95,2.84-4.81,2.84-8.57,0-3.54-.95-6.23-2.84-8.07-1.89-1.84-4.67-2.76-8.32-2.76Z"/>
      <path class="cls-3" d="m590.98,402.59v-24.53h1.78v24.53h-1.78Z"/>
      <path class="cls-3" d="m603.41,402.59v-24.53h1.92l14.05,21.98h.07v-21.98h1.68v24.53h-1.95l-14.05-21.98h-.07v21.98h-1.65Z"/>
      <path class="cls-3" d="m641.56,379.17c-3.36,0-6,1-7.91,2.99-1.92,1.99-2.87,4.72-2.87,8.17s.97,6.15,2.92,8.15c1.95,2.01,4.6,3.01,7.97,3.01,2.49,0,4.69-.44,6.62-1.31v-10.18h-9.31v-1.41h10.92v12.54c-2.44,1.21-5.22,1.81-8.33,1.81-3.79,0-6.82-1.14-9.09-3.43-2.27-2.29-3.41-5.34-3.41-9.17s1.11-6.89,3.34-9.17c2.23-2.29,5.24-3.43,9.02-3.43,2.89,0,5.42.67,7.6,2.02l-.64,1.28c-2.04-1.23-4.31-1.85-6.82-1.85Z"/>
    </g>
    <rect class="cls-2" x="704.21" y="446.55" width="8.37" height="8.37"/>
    <rect class="cls-2" x="725.08" y="446.55" width="8.37" height="8.37"/>
    <rect class="cls-2" x="745.96" y="446.55" width="8.37" height="8.37"/>
    <g>
      <g>
        <rect class="cls-2" x="362.97" y="535.45" width="5.7" height="139.99" transform="translate(971.27 239.63) rotate(90)"/>
        <rect class="cls-2" x="441.08" y="566.6" width="13.67" height="83.4" transform="translate(1056.21 160.38) rotate(90)"/>
        <rect class="cls-2" x="432.4" y="569.79" width="6.84" height="139.99" transform="translate(871.63 1279.57) rotate(180)"/>
      </g>
      <rect class="cls-2" x="409.1" y="638.27" width="3.55" height="72.71" transform="translate(597.37 -92.94) rotate(45)"/>
      <rect class="cls-2" x="369.1" y="603.43" width="3.55" height="72.71" transform="translate(561.02 -74.86) rotate(45)"/>
    </g>
    <line class="cls-5" x1="18.69" y1="235.53" x2="224.21" y2="30"/>
    <line class="cls-5" x1="532.96" y1="724.81" x2="805.29" y2="452.48"/>
    <line class="cls-5" x1="513.82" y1="727.56" x2="786.15" y2="455.23"/>
    <line class="cls-5" x1="233.29" y1="691.54" x2="505.62" y2="419.2"/>
    <line class="cls-5" x1="641.3" y1="257.59" x2="897.17" y2="1.72"/>
    <g>
      <polygon class="cls-5" points="539.28 693.94 531.88 693.94 538.24 673.6 531.88 653.26 539.28 653.26 545.64 673.6 539.28 693.94"/>
      <polygon class="cls-5" points="571.45 707.41 559.15 707.41 569.72 673.6 559.15 639.79 571.45 639.79 582.03 673.6 571.45 707.41"/>
    </g>
    <rect class="cls-2" x="284.31" y="224.07" width="184.84" height=".6"/>
    <g>
      <g>
        <g>
          <rect class="cls-2" x="903.05" y="106.61" width="121.75" height="7.82"/>
          <rect class="cls-2" x="949.09" y="114.43" width="121.75" height="16.63"/>
        </g>
        <rect class="cls-2" x="1038.42" y="78.19" width="6.78" height="129.46" transform="translate(406.2 -694.81) rotate(45)"/>
      </g>
      <rect class="cls-2" x="1024.85" y="102.35" width="3.55" height="162.34" transform="translate(430.46 -672.18) rotate(45)"/>
      <line class="cls-5" x1="981.77" y1="207.76" x2="879.3" y2="310.23"/>
    </g>
    <rect class="cls-2" x="199.72" y="61.89" width="12.59" height="10.12"/>
    <rect class="cls-2" x="320.21" y="449.89" width="6.78" height="129.46" transform="translate(458.67 -78.09) rotate(45)"/>
    <rect class="cls-2" x="292.2" y="131.12" width="3.55" height="162.34" transform="translate(506.26 -81.68) rotate(90)"/>
    <rect class="cls-2" x="330.03" y="129.59" width="6.78" height="129.46" transform="translate(527.74 -139.1) rotate(90)"/>
  </g>
</svg>